<mxfile host="app.diagrams.net" modified="2021-10-08T17:41:42.753Z" agent="5.0 (Windows NT 10.0; Win64; x64) AppleWebKit/537.36 (KHTML, like Gecko) Chrome/94.0.4606.81 Safari/537.36" etag="xrD54le-UCAoLtG6HP3y" version="15.4.3" type="github">
  <diagram id="AD8wVy3Nz5UXYVRSOir3" name="Page-1">
    <mxGraphModel dx="2026" dy="284" grid="0" gridSize="10" guides="1" tooltips="1" connect="1" arrows="1" fold="1" page="0" pageScale="1" pageWidth="827" pageHeight="1169" background="none" math="0" shadow="0">
      <root>
        <mxCell id="0" />
        <mxCell id="1" parent="0" />
        <mxCell id="Oz2E0d1gx8pRwYydok05-1" value="" style="shape=image;verticalLabelPosition=bottom;labelBackgroundColor=#ffffff;verticalAlign=top;aspect=fixed;imageAspect=0;image=data:image/svg+xml,PHN2ZyB4bWxucz0iaHR0cDovL3d3dy53My5vcmcvMjAwMC9zdmciIHhtbG5zOnhsaW5rPSJodHRwOi8vd3d3LnczLm9yZy8xOTk5L3hsaW5rIiB3aWR0aD0iMjY4MiIgaGVpZ2h0PSIzMzUiIHZpZXdCb3g9IjAgMCAyNjgyIDMzNSI+JiN4YTs8ZyBpZD0iZ3JhcGgwIiBjbGFzcz0iZ3JhcGgiIHRyYW5zZm9ybT0ic2NhbGUoMSAxKSByb3RhdGUoMCkgdHJhbnNsYXRlKDQgMzMxKSI+JiN4YTs8dGl0bGU+RDwvdGl0bGU+JiN4YTs8cG9seWdvbiBmaWxsPSJ3aGl0ZSIgc3Ryb2tlPSJ0cmFuc3BhcmVudCIgcG9pbnRzPSItNCw0IC00LC0zMzEgMjY3OCwtMzMxIDI2NzgsNCAtNCw0Ii8+JiN4YTs8IS0tIFRJVlVLUURIIC0tPiYjeGE7PGcgaWQ9Im5vZGUxIiBjbGFzcz0ibm9kZSI+JiN4YTs8dGl0bGU+VElWVUtRREg8L3RpdGxlPiYjeGE7PGVsbGlwc2UgZmlsbD0ibm9uZSIgc3Ryb2tlPSJibGFjayIgY3g9Ijg3MS41IiBjeT0iLTMwOSIgcng9IjE4IiByeT0iMTgiLz4mI3hhOzwvZz4mI3hhOzwhLS0gWUpJUFFWWUggLS0+JiN4YTs8ZyBpZD0ibm9kZTIiIGNsYXNzPSJub2RlIj4mI3hhOzx0aXRsZT5ZSklQUVZZSDwvdGl0bGU+JiN4YTs8ZWxsaXBzZSBmaWxsPSJub25lIiBzdHJva2U9ImJsYWNrIiBjeD0iNDg3LjUiIGN5PSItMjM3IiByeD0iMTgiIHJ5PSIxOCIvPiYjeGE7PC9nPiYjeGE7PCEtLSBUSVZVS1FESCYjNDU7Jmd0O1lKSVBRVllIIC0tPiYjeGE7PGcgaWQ9ImVkZ2UxIiBjbGFzcz0iZWRnZSI+JiN4YTs8dGl0bGU+VElWVUtRREgtJmd0O1lKSVBRVllIPC90aXRsZT4mI3hhOzxwYXRoIGZpbGw9Im5vbmUiIHN0cm9rZT0iYmxhY2siIGQ9Ik04NTMuNzUsLTMwNC43NkM3OTIuNDUsLTI5My41OSA1ODkuMzgsLTI1Ni41NyA1MTUuMDYsLTI0My4wMiIvPiYjeGE7PHBvbHlnb24gZmlsbD0iYmxhY2siIHN0cm9rZT0iYmxhY2siIHBvaW50cz0iNTE1LjUzLC0yMzkuNTUgNTA1LjA2LC0yNDEuMiA1MTQuMjcsLTI0Ni40MyA1MTUuNTMsLTIzOS41NSIvPiYjeGE7PC9nPiYjeGE7PCEtLSBaSEhVUEdCTyAtLT4mI3hhOzxnIGlkPSJub2RlMjMiIGNsYXNzPSJub2RlIj4mI3hhOzx0aXRsZT5aSEhVUEdCTzwvdGl0bGU+JiN4YTs8ZWxsaXBzZSBmaWxsPSJub25lIiBzdHJva2U9ImJsYWNrIiBjeD0iMTM2Ni41IiBjeT0iLTIzNyIgcng9IjE4IiByeT0iMTgiLz4mI3hhOzwvZz4mI3hhOzwhLS0gVElWVUtRREgmIzQ1OyZndDtaSEhVUEdCTyAtLT4mI3hhOzxnIGlkPSJlZGdlMjIiIGNsYXNzPSJlZGdlIj4mI3hhOzx0aXRsZT5USVZVS1FESC0mZ3Q7WkhIVVBHQk88L3RpdGxlPiYjeGE7PHBhdGggZmlsbD0ibm9uZSIgc3Ryb2tlPSJibGFjayIgZD0iTTg4OS40MSwtMzA1LjQ2Qzk2My42OSwtMjk0Ljk2IDEyNDcuOSwtMjU0Ljc3IDEzMzguNTUsLTI0MS45NSIvPiYjeGE7PHBvbHlnb24gZmlsbD0iYmxhY2siIHN0cm9rZT0iYmxhY2siIHBvaW50cz0iMTMzOS4yLC0yNDUuMzkgMTM0OC42MSwtMjQwLjUzIDEzMzguMjIsLTIzOC40NiAxMzM5LjIsLTI0NS4zOSIvPiYjeGE7PC9nPiYjeGE7PCEtLSBCV0ZHQVBIUiAtLT4mI3hhOzxnIGlkPSJub2RlMyIgY2xhc3M9Im5vZGUiPiYjeGE7PHRpdGxlPkJXRkdBUEhSPC90aXRsZT4mI3hhOzxlbGxpcHNlIGZpbGw9Im5vbmUiIHN0cm9rZT0iYmxhY2siIGN4PSIxNjEuNSIgY3k9Ii0xNjUiIHJ4PSIxOCIgcnk9IjE4Ii8+JiN4YTs8L2c+JiN4YTs8IS0tIFlKSVBRVllIJiM0NTsmZ3Q7QldGR0FQSFIgLS0+JiN4YTs8ZyBpZD0iZWRnZTIiIGNsYXNzPSJlZGdlIj4mI3hhOzx0aXRsZT5ZSklQUVZZSC0mZ3Q7QldGR0FQSFI8L3RpdGxlPiYjeGE7PHBhdGggZmlsbD0ibm9uZSIgc3Ryb2tlPSJibGFjayIgZD0iTTQ2OS45NywtMjMyLjIzQzQxNi4zNSwtMjIwLjcyIDI1NC4yMywtMTg1LjkxIDE4OS4wNiwtMTcxLjkxIi8+JiN4YTs8cG9seWdvbiBmaWxsPSJibGFjayIgc3Ryb2tlPSJibGFjayIgcG9pbnRzPSIxODkuNjIsLTE2OC40NiAxNzkuMTEsLTE2OS43OCAxODguMTUsLTE3NS4zIDE4OS42MiwtMTY4LjQ2Ii8+JiN4YTs8L2c+JiN4YTs8IS0tIEFBS1pDVlBGIC0tPiYjeGE7PGcgaWQ9Im5vZGUxMCIgY2xhc3M9Im5vZGUiPiYjeGE7PHRpdGxlPkFBS1pDVlBGPC90aXRsZT4mI3hhOzxlbGxpcHNlIGZpbGw9Im5vbmUiIHN0cm9rZT0iYmxhY2siIGN4PSI0ODcuNSIgY3k9Ii0xNjUiIHJ4PSIxOCIgcnk9IjE4Ii8+JiN4YTs8L2c+JiN4YTs8IS0tIFlKSVBRVllIJiM0NTsmZ3Q7QUFLWkNWUEYgLS0+JiN4YTs8ZyBpZD0iZWRnZTkiIGNsYXNzPSJlZGdlIj4mI3hhOzx0aXRsZT5ZSklQUVZZSC0mZ3Q7QUFLWkNWUEY8L3RpdGxlPiYjeGE7PHBhdGggZmlsbD0ibm9uZSIgc3Ryb2tlPSJibGFjayIgZD0iTTQ4Ny41LC0yMTguNjlDNDg3LjUsLTIxMC45OCA0ODcuNSwtMjAxLjcxIDQ4Ny41LC0xOTMuMTEiLz4mI3hhOzxwb2x5Z29uIGZpbGw9ImJsYWNrIiBzdHJva2U9ImJsYWNrIiBwb2ludHM9IjQ5MSwtMTkzLjEgNDg3LjUsLTE4My4xIDQ4NCwtMTkzLjEgNDkxLC0xOTMuMSIvPiYjeGE7PC9nPiYjeGE7PCEtLSBPRlNZQlBHSiAtLT4mI3hhOzxnIGlkPSJub2RlNCIgY2xhc3M9Im5vZGUiPiYjeGE7PHRpdGxlPk9GU1lCUEdKPC90aXRsZT4mI3hhOzxlbGxpcHNlIGZpbGw9Im5vbmUiIHN0cm9rZT0iYmxhY2siIGN4PSI3Ni41IiBjeT0iLTkzIiByeD0iMTgiIHJ5PSIxOCIvPiYjeGE7PC9nPiYjeGE7PCEtLSBCV0ZHQVBIUiYjNDU7Jmd0O09GU1lCUEdKIC0tPiYjeGE7PGcgaWQ9ImVkZ2UzIiBjbGFzcz0iZWRnZSI+JiN4YTs8dGl0bGU+QldGR0FQSFItJmd0O09GU1lCUEdKPC90aXRsZT4mI3hhOzxwYXRoIGZpbGw9Im5vbmUiIHN0cm9rZT0iYmxhY2siIGQ9Ik0xNDcuODQsLTE1Mi43NUMxMzQuNDYsLTE0MS43MyAxMTMuODUsLTEyNC43NiA5OC4yMiwtMTExLjg4Ii8+JiN4YTs8cG9seWdvbiBmaWxsPSJibGFjayIgc3Ryb2tlPSJibGFjayIgcG9pbnRzPSIxMDAuMDcsLTEwOC44NyA5MC4xMiwtMTA1LjIyIDk1LjYyLC0xMTQuMjcgMTAwLjA3LC0xMDguODciLz4mI3hhOzwvZz4mI3hhOzwhLS0gWU1aQVZHWU4gLS0+JiN4YTs8ZyBpZD0ibm9kZTciIGNsYXNzPSJub2RlIj4mI3hhOzx0aXRsZT5ZTVpBVkdZTjwvdGl0bGU+JiN4YTs8ZWxsaXBzZSBmaWxsPSJub25lIiBzdHJva2U9ImJsYWNrIiBjeD0iMTYxLjUiIGN5PSItOTMiIHJ4PSIxOCIgcnk9IjE4Ii8+JiN4YTs8L2c+JiN4YTs8IS0tIEJXRkdBUEhSJiM0NTsmZ3Q7WU1aQVZHWU4gLS0+JiN4YTs8ZyBpZD0iZWRnZTYiIGNsYXNzPSJlZGdlIj4mI3hhOzx0aXRsZT5CV0ZHQVBIUi0mZ3Q7WU1aQVZHWU48L3RpdGxlPiYjeGE7PHBhdGggZmlsbD0ibm9uZSIgc3Ryb2tlPSJibGFjayIgZD0iTTE2MS41LC0xNDYuNjlDMTYxLjUsLTEzOC45OCAxNjEuNSwtMTI5LjcxIDE2MS41LC0xMjEuMTEiLz4mI3hhOzxwb2x5Z29uIGZpbGw9ImJsYWNrIiBzdHJva2U9ImJsYWNrIiBwb2ludHM9IjE2NSwtMTIxLjEgMTYxLjUsLTExMS4xIDE1OCwtMTIxLjEgMTY1LC0xMjEuMSIvPiYjeGE7PC9nPiYjeGE7PCEtLSBKTVJNU0lJQSAtLT4mI3hhOzxnIGlkPSJub2RlNSIgY2xhc3M9Im5vZGUiPiYjeGE7PHRpdGxlPkpNUk1TSUlBPC90aXRsZT4mI3hhOzxlbGxpcHNlIGZpbGw9Im5vbmUiIHN0cm9rZT0iYmxhY2siIGN4PSIxOS41IiBjeT0iLTE5LjUiIHJ4PSIxOS41IiByeT0iMTkuNSIvPiYjeGE7PHRleHQgdGV4dC1hbmNob3I9Im1pZGRsZSIgeD0iMTkuNSIgeT0iLTE1LjgiIGZvbnQtZmFtaWx5PSJUaW1lcyxzZXJpZiIgZm9udC1zaXplPSIxNC4wMCI+MTA8L3RleHQ+JiN4YTs8L2c+JiN4YTs8IS0tIE9GU1lCUEdKJiM0NTsmZ3Q7Sk1STVNJSUEgLS0+JiN4YTs8ZyBpZD0iZWRnZTQiIGNsYXNzPSJlZGdlIj4mI3hhOzx0aXRsZT5PRlNZQlBHSi0mZ3Q7Sk1STVNJSUE8L3RpdGxlPiYjeGE7PHBhdGggZmlsbD0ibm9uZSIgc3Ryb2tlPSJibGFjayIgZD0iTTY1LjUxLC03OC4yMUM1Ny41OSwtNjguMjggNDYuNzQsLTU0LjY3IDM3LjU2LC00My4xNiIvPiYjeGE7PHBvbHlnb24gZmlsbD0iYmxhY2siIHN0cm9rZT0iYmxhY2siIHBvaW50cz0iNDAuMjEsLTQwLjg2IDMxLjI0LC0zNS4yMyAzNC43NCwtNDUuMjMgNDAuMjEsLTQwLjg2Ii8+JiN4YTs8L2c+JiN4YTs8IS0tIEZWUE5VWERFIC0tPiYjeGE7PGcgaWQ9Im5vZGU2IiBjbGFzcz0ibm9kZSI+JiN4YTs8dGl0bGU+RlZQTlVYREU8L3RpdGxlPiYjeGE7PGVsbGlwc2UgZmlsbD0ibm9uZSIgc3Ryb2tlPSJibGFjayIgY3g9Ijc2LjUiIGN5PSItMTkuNSIgcng9IjE5LjUiIHJ5PSIxOS41Ii8+JiN4YTs8dGV4dCB0ZXh0LWFuY2hvcj0ibWlkZGxlIiB4PSI3Ni41IiB5PSItMTUuOCIgZm9udC1mYW1pbHk9IlRpbWVzLHNlcmlmIiBmb250LXNpemU9IjE0LjAwIj4xNDwvdGV4dD4mI3hhOzwvZz4mI3hhOzwhLS0gT0ZTWUJQR0omIzQ1OyZndDtGVlBOVVhERSAtLT4mI3hhOzxnIGlkPSJlZGdlNSIgY2xhc3M9ImVkZ2UiPiYjeGE7PHRpdGxlPk9GU1lCUEdKLSZndDtGVlBOVVhERTwvdGl0bGU+JiN4YTs8cGF0aCBmaWxsPSJub25lIiBzdHJva2U9ImJsYWNrIiBkPSJNNzYuNSwtNzQuNjlDNzYuNSwtNjcuMDUgNzYuNSwtNTcuODYgNzYuNSwtNDkuMjQiLz4mI3hhOzxwb2x5Z29uIGZpbGw9ImJsYWNrIiBzdHJva2U9ImJsYWNrIiBwb2ludHM9IjgwLC00OS4xNSA3Ni41LC0zOS4xNSA3MywtNDkuMTUgODAsLTQ5LjE1Ii8+JiN4YTs8L2c+JiN4YTs8IS0tIENPWFFGSVFXIC0tPiYjeGE7PGcgaWQ9Im5vZGU4IiBjbGFzcz0ibm9kZSI+JiN4YTs8dGl0bGU+Q09YUUZJUVc8L3RpdGxlPiYjeGE7PGVsbGlwc2UgZmlsbD0ibm9uZSIgc3Ryb2tlPSJibGFjayIgY3g9IjEzMy41IiBjeT0iLTE5LjUiIHJ4PSIxOS41IiByeT0iMTkuNSIvPiYjeGE7PHRleHQgdGV4dC1hbmNob3I9Im1pZGRsZSIgeD0iMTMzLjUiIHk9Ii0xNS44IiBmb250LWZhbWlseT0iVGltZXMsc2VyaWYiIGZvbnQtc2l6ZT0iMTQuMDAiPjEwPC90ZXh0PiYjeGE7PC9nPiYjeGE7PCEtLSBZTVpBVkdZTiYjNDU7Jmd0O0NPWFFGSVFXIC0tPiYjeGE7PGcgaWQ9ImVkZ2U3IiBjbGFzcz0iZWRnZSI+JiN4YTs8dGl0bGU+WU1aQVZHWU4tJmd0O0NPWFFGSVFXPC90aXRsZT4mI3hhOzxwYXRoIGZpbGw9Im5vbmUiIHN0cm9rZT0iYmxhY2siIGQ9Ik0xNTUuMTQsLTc1Ljc3QzE1MS44NiwtNjcuMzkgMTQ3Ljc3LC01Ni45NSAxNDQuMDQsLTQ3LjQxIi8+JiN4YTs8cG9seWdvbiBmaWxsPSJibGFjayIgc3Ryb2tlPSJibGFjayIgcG9pbnRzPSIxNDcuMjIsLTQ1Ljk0IDE0MC4zMiwtMzcuOTEgMTQwLjcsLTQ4LjUgMTQ3LjIyLC00NS45NCIvPiYjeGE7PC9nPiYjeGE7PCEtLSBNSldCTUpOViAtLT4mI3hhOzxnIGlkPSJub2RlOSIgY2xhc3M9Im5vZGUiPiYjeGE7PHRpdGxlPk1KV0JNSk5WPC90aXRsZT4mI3hhOzxlbGxpcHNlIGZpbGw9Im5vbmUiIHN0cm9rZT0iYmxhY2siIGN4PSIxODguNSIgY3k9Ii0xOS41IiByeD0iMTgiIHJ5PSIxOCIvPiYjeGE7PHRleHQgdGV4dC1hbmNob3I9Im1pZGRsZSIgeD0iMTg4LjUiIHk9Ii0xNS44IiBmb250LWZhbWlseT0iVGltZXMsc2VyaWYiIGZvbnQtc2l6ZT0iMTQuMDAiPjY8L3RleHQ+JiN4YTs8L2c+JiN4YTs8IS0tIFlNWkFWR1lOJiM0NTsmZ3Q7TUpXQk1KTlYgLS0+JiN4YTs8ZyBpZD0iZWRnZTgiIGNsYXNzPSJlZGdlIj4mI3hhOzx0aXRsZT5ZTVpBVkdZTi0mZ3Q7TUpXQk1KTlY8L3RpdGxlPiYjeGE7PHBhdGggZmlsbD0ibm9uZSIgc3Ryb2tlPSJibGFjayIgZD0iTTE2Ny42MiwtNzUuNzdDMTcwLjk0LC02NyAxNzUuMTEsLTU1Ljk2IDE3OC44NSwtNDYuMDUiLz4mI3hhOzxwb2x5Z29uIGZpbGw9ImJsYWNrIiBzdHJva2U9ImJsYWNrIiBwb2ludHM9IjE4Mi4xNCwtNDcuMjUgMTgyLjQsLTM2LjY2IDE3NS41OSwtNDQuNzggMTgyLjE0LC00Ny4yNSIvPiYjeGE7PC9nPiYjeGE7PCEtLSBQUFNUQ1JGSiAtLT4mI3hhOzxnIGlkPSJub2RlMTEiIGNsYXNzPSJub2RlIj4mI3hhOzx0aXRsZT5QUFNUQ1JGSjwvdGl0bGU+JiN4YTs8ZWxsaXBzZSBmaWxsPSJub25lIiBzdHJva2U9ImJsYWNrIiBjeD0iMzUwLjUiIGN5PSItOTMiIHJ4PSIxOCIgcnk9IjE4Ii8+JiN4YTs8L2c+JiN4YTs8IS0tIEFBS1pDVlBGJiM0NTsmZ3Q7UFBTVENSRkogLS0+JiN4YTs8ZyBpZD0iZWRnZTEwIiBjbGFzcz0iZWRnZSI+JiN4YTs8dGl0bGU+QUFLWkNWUEYtJmd0O1BQU1RDUkZKPC90aXRsZT4mI3hhOzxwYXRoIGZpbGw9Im5vbmUiIHN0cm9rZT0iYmxhY2siIGQ9Ik00NzEuNzgsLTE1NS45N0M0NDguMjcsLTE0My45NSA0MDMuNywtMTIxLjE4IDM3NS42MywtMTA2Ljg0Ii8+JiN4YTs8cG9seWdvbiBmaWxsPSJibGFjayIgc3Ryb2tlPSJibGFjayIgcG9pbnRzPSIzNzYuOTUsLTEwMy41OCAzNjYuNDUsLTEwMi4xNSAzNzMuNzcsLTEwOS44MiAzNzYuOTUsLTEwMy41OCIvPiYjeGE7PC9nPiYjeGE7PCEtLSBVRFBRV1NKVyAtLT4mI3hhOzxnIGlkPSJub2RlMTYiIGNsYXNzPSJub2RlIj4mI3hhOzx0aXRsZT5VRFBRV1NKVzwvdGl0bGU+JiN4YTs8ZWxsaXBzZSBmaWxsPSJub25lIiBzdHJva2U9ImJsYWNrIiBjeD0iNDg3LjUiIGN5PSItOTMiIHJ4PSIxOCIgcnk9IjE4Ii8+JiN4YTs8L2c+JiN4YTs8IS0tIEFBS1pDVlBGJiM0NTsmZ3Q7VURQUVdTSlcgLS0+JiN4YTs8ZyBpZD0iZWRnZTE1IiBjbGFzcz0iZWRnZSI+JiN4YTs8dGl0bGU+QUFLWkNWUEYtJmd0O1VEUFFXU0pXPC90aXRsZT4mI3hhOzxwYXRoIGZpbGw9Im5vbmUiIHN0cm9rZT0iYmxhY2siIGQ9Ik00ODcuNSwtMTQ2LjY5QzQ4Ny41LC0xMzguOTggNDg3LjUsLTEyOS43MSA0ODcuNSwtMTIxLjExIi8+JiN4YTs8cG9seWdvbiBmaWxsPSJibGFjayIgc3Ryb2tlPSJibGFjayIgcG9pbnRzPSI0OTEsLTEyMS4xIDQ4Ny41LC0xMTEuMSA0ODQsLTEyMS4xIDQ5MSwtMTIxLjEiLz4mI3hhOzwvZz4mI3hhOzwhLS0gVFRLVUpDQUQgLS0+JiN4YTs8ZyBpZD0ibm9kZTE5IiBjbGFzcz0ibm9kZSI+JiN4YTs8dGl0bGU+VFRLVUpDQUQ8L3RpdGxlPiYjeGE7PGVsbGlwc2UgZmlsbD0ibm9uZSIgc3Ryb2tlPSJibGFjayIgY3g9IjU5Ny41IiBjeT0iLTkzIiByeD0iMTgiIHJ5PSIxOCIvPiYjeGE7PC9nPiYjeGE7PCEtLSBBQUtaQ1ZQRiYjNDU7Jmd0O1RUS1VKQ0FEIC0tPiYjeGE7PGcgaWQ9ImVkZ2UxOCIgY2xhc3M9ImVkZ2UiPiYjeGE7PHRpdGxlPkFBS1pDVlBGLSZndDtUVEtVSkNBRDwvdGl0bGU+JiN4YTs8cGF0aCBmaWxsPSJub25lIiBzdHJva2U9ImJsYWNrIiBkPSJNNTAyLjMzLC0xNTQuNTZDNTIwLjcsLTE0Mi44NyA1NTIuMjIsLTEyMi44MSA1NzMuOTIsLTEwOSIvPiYjeGE7PHBvbHlnb24gZmlsbD0iYmxhY2siIHN0cm9rZT0iYmxhY2siIHBvaW50cz0iNTc1Ljk5LC0xMTEuODMgNTgyLjU1LC0xMDMuNTEgNTcyLjIzLC0xMDUuOTMgNTc1Ljk5LC0xMTEuODMiLz4mI3hhOzwvZz4mI3hhOzwhLS0gQkxGTVpNU0IgLS0+JiN4YTs8ZyBpZD0ibm9kZTEyIiBjbGFzcz0ibm9kZSI+JiN4YTs8dGl0bGU+QkxGTVpNU0I8L3RpdGxlPiYjeGE7PGVsbGlwc2UgZmlsbD0ibm9uZSIgc3Ryb2tlPSJibGFjayIgY3g9IjI0Mi41IiBjeT0iLTE5LjUiIHJ4PSIxOCIgcnk9IjE4Ii8+JiN4YTs8dGV4dCB0ZXh0LWFuY2hvcj0ibWlkZGxlIiB4PSIyNDIuNSIgeT0iLTE1LjgiIGZvbnQtZmFtaWx5PSJUaW1lcyxzZXJpZiIgZm9udC1zaXplPSIxNC4wMCI+MTwvdGV4dD4mI3hhOzwvZz4mI3hhOzwhLS0gUFBTVENSRkomIzQ1OyZndDtCTEZNWk1TQiAtLT4mI3hhOzxnIGlkPSJlZGdlMTEiIGNsYXNzPSJlZGdlIj4mI3hhOzx0aXRsZT5QUFNUQ1JGSi0mZ3Q7QkxGTVpNU0I8L3RpdGxlPiYjeGE7PHBhdGggZmlsbD0ibm9uZSIgc3Ryb2tlPSJibGFjayIgZD0iTTMzNS44LC04Mi41MkMzMTkuNTMsLTcxLjk4IDI5Mi41NCwtNTQuNDIgMjY5LjUsLTM5IDI2OC4yMywtMzguMTUgMjY2LjkzLC0zNy4yNyAyNjUuNjIsLTM2LjM5Ii8+JiN4YTs8cG9seWdvbiBmaWxsPSJibGFjayIgc3Ryb2tlPSJibGFjayIgcG9pbnRzPSIyNjcuMjcsLTMzLjI3IDI1Ny4wMywtMzAuNTQgMjYzLjMzLC0zOS4wNiAyNjcuMjcsLTMzLjI3Ii8+JiN4YTs8L2c+JiN4YTs8IS0tIEtBQU5YRkZMIC0tPiYjeGE7PGcgaWQ9Im5vZGUxMyIgY2xhc3M9Im5vZGUiPiYjeGE7PHRpdGxlPktBQU5YRkZMPC90aXRsZT4mI3hhOzxlbGxpcHNlIGZpbGw9Im5vbmUiIHN0cm9rZT0iYmxhY2siIGN4PSIyOTYuNSIgY3k9Ii0xOS41IiByeD0iMTgiIHJ5PSIxOCIvPiYjeGE7PHRleHQgdGV4dC1hbmNob3I9Im1pZGRsZSIgeD0iMjk2LjUiIHk9Ii0xNS44IiBmb250LWZhbWlseT0iVGltZXMsc2VyaWYiIGZvbnQtc2l6ZT0iMTQuMDAiPjQ8L3RleHQ+JiN4YTs8L2c+JiN4YTs8IS0tIFBQU1RDUkZKJiM0NTsmZ3Q7S0FBTlhGRkwgLS0+JiN4YTs8ZyBpZD0iZWRnZTEyIiBjbGFzcz0iZWRnZSI+JiN4YTs8dGl0bGU+UFBTVENSRkotJmd0O0tBQU5YRkZMPC90aXRsZT4mI3hhOzxwYXRoIGZpbGw9Im5vbmUiIHN0cm9rZT0iYmxhY2siIGQ9Ik0zNDAuMDksLTc4LjIxQzMzMi4zOSwtNjguMDIgMzIxLjc2LC01My45NSAzMTIuOTMsLTQyLjI1Ii8+JiN4YTs8cG9seWdvbiBmaWxsPSJibGFjayIgc3Ryb2tlPSJibGFjayIgcG9pbnRzPSIzMTUuNywtNDAuMTEgMzA2Ljg4LC0zNC4yNCAzMTAuMTEsLTQ0LjMzIDMxNS43LC00MC4xMSIvPiYjeGE7PC9nPiYjeGE7PCEtLSBFQlFCQVFJQSAtLT4mI3hhOzxnIGlkPSJub2RlMTQiIGNsYXNzPSJub2RlIj4mI3hhOzx0aXRsZT5FQlFCQVFJQTwvdGl0bGU+JiN4YTs8ZWxsaXBzZSBmaWxsPSJub25lIiBzdHJva2U9ImJsYWNrIiBjeD0iMzUwLjUiIGN5PSItMTkuNSIgcng9IjE4IiByeT0iMTgiLz4mI3hhOzx0ZXh0IHRleHQtYW5jaG9yPSJtaWRkbGUiIHg9IjM1MC41IiB5PSItMTUuOCIgZm9udC1mYW1pbHk9IlRpbWVzLHNlcmlmIiBmb250LXNpemU9IjE0LjAwIj43PC90ZXh0PiYjeGE7PC9nPiYjeGE7PCEtLSBQUFNUQ1JGSiYjNDU7Jmd0O0VCUUJBUUlBIC0tPiYjeGE7PGcgaWQ9ImVkZ2UxMyIgY2xhc3M9ImVkZ2UiPiYjeGE7PHRpdGxlPlBQU1RDUkZKLSZndDtFQlFCQVFJQTwvdGl0bGU+JiN4YTs8cGF0aCBmaWxsPSJub25lIiBzdHJva2U9ImJsYWNrIiBkPSJNMzUwLjUsLTc0LjY5QzM1MC41LC02Ni42MSAzNTAuNSwtNTYuOCAzNTAuNSwtNDcuNzYiLz4mI3hhOzxwb2x5Z29uIGZpbGw9ImJsYWNrIiBzdHJva2U9ImJsYWNrIiBwb2ludHM9IjM1NCwtNDcuNjUgMzUwLjUsLTM3LjY1IDM0NywtNDcuNjUgMzU0LC00Ny42NSIvPiYjeGE7PC9nPiYjeGE7PCEtLSBBT0lISlNTUSAtLT4mI3hhOzxnIGlkPSJub2RlMTUiIGNsYXNzPSJub2RlIj4mI3hhOzx0aXRsZT5BT0lISlNTUTwvdGl0bGU+JiN4YTs8ZWxsaXBzZSBmaWxsPSJub25lIiBzdHJva2U9ImJsYWNrIiBjeD0iNDA0LjUiIGN5PSItMTkuNSIgcng9IjE4IiByeT0iMTgiLz4mI3hhOzx0ZXh0IHRleHQtYW5jaG9yPSJtaWRkbGUiIHg9IjQwNC41IiB5PSItMTUuOCIgZm9udC1mYW1pbHk9IlRpbWVzLHNlcmlmIiBmb250LXNpemU9IjE0LjAwIj42PC90ZXh0PiYjeGE7PC9nPiYjeGE7PCEtLSBQUFNUQ1JGSiYjNDU7Jmd0O0FPSUhKU1NRIC0tPiYjeGE7PGcgaWQ9ImVkZ2UxNCIgY2xhc3M9ImVkZ2UiPiYjeGE7PHRpdGxlPlBQU1RDUkZKLSZndDtBT0lISlNTUTwvdGl0bGU+JiN4YTs8cGF0aCBmaWxsPSJub25lIiBzdHJva2U9ImJsYWNrIiBkPSJNMzYwLjkxLC03OC4yMUMzNjguNiwtNjguMDIgMzc5LjIzLC01My45NSAzODguMDcsLTQyLjI1Ii8+JiN4YTs8cG9seWdvbiBmaWxsPSJibGFjayIgc3Ryb2tlPSJibGFjayIgcG9pbnRzPSIzOTAuODgsLTQ0LjMzIDM5NC4xMiwtMzQuMjQgMzg1LjMsLTQwLjExIDM5MC44OCwtNDQuMzMiLz4mI3hhOzwvZz4mI3hhOzwhLS0gS1ZDVUFJUUEgLS0+JiN4YTs8ZyBpZD0ibm9kZTE3IiBjbGFzcz0ibm9kZSI+JiN4YTs8dGl0bGU+S1ZDVUFJUUE8L3RpdGxlPiYjeGE7PGVsbGlwc2UgZmlsbD0ibm9uZSIgc3Ryb2tlPSJibGFjayIgY3g9IjQ1OS41IiBjeT0iLTE5LjUiIHJ4PSIxOS41IiByeT0iMTkuNSIvPiYjeGE7PHRleHQgdGV4dC1hbmNob3I9Im1pZGRsZSIgeD0iNDU5LjUiIHk9Ii0xNS44IiBmb250LWZhbWlseT0iVGltZXMsc2VyaWYiIGZvbnQtc2l6ZT0iMTQuMDAiPjE0PC90ZXh0PiYjeGE7PC9nPiYjeGE7PCEtLSBVRFBRV1NKVyYjNDU7Jmd0O0tWQ1VBSVFBIC0tPiYjeGE7PGcgaWQ9ImVkZ2UxNiIgY2xhc3M9ImVkZ2UiPiYjeGE7PHRpdGxlPlVEUFFXU0pXLSZndDtLVkNVQUlRQTwvdGl0bGU+JiN4YTs8cGF0aCBmaWxsPSJub25lIiBzdHJva2U9ImJsYWNrIiBkPSJNNDgxLjE0LC03NS43N0M0NzcuODYsLTY3LjM5IDQ3My43NywtNTYuOTUgNDcwLjA0LC00Ny40MSIvPiYjeGE7PHBvbHlnb24gZmlsbD0iYmxhY2siIHN0cm9rZT0iYmxhY2siIHBvaW50cz0iNDczLjIyLC00NS45NCA0NjYuMzIsLTM3LjkxIDQ2Ni43LC00OC41IDQ3My4yMiwtNDUuOTQiLz4mI3hhOzwvZz4mI3hhOzwhLS0gWk9PQkRKVEYgLS0+JiN4YTs8ZyBpZD0ibm9kZTE4IiBjbGFzcz0ibm9kZSI+JiN4YTs8dGl0bGU+Wk9PQkRKVEY8L3RpdGxlPiYjeGE7PGVsbGlwc2UgZmlsbD0ibm9uZSIgc3Ryb2tlPSJibGFjayIgY3g9IjUxNC41IiBjeT0iLTE5LjUiIHJ4PSIxOCIgcnk9IjE4Ii8+JiN4YTs8dGV4dCB0ZXh0LWFuY2hvcj0ibWlkZGxlIiB4PSI1MTQuNSIgeT0iLTE1LjgiIGZvbnQtZmFtaWx5PSJUaW1lcyxzZXJpZiIgZm9udC1zaXplPSIxNC4wMCI+MjwvdGV4dD4mI3hhOzwvZz4mI3hhOzwhLS0gVURQUVdTSlcmIzQ1OyZndDtaT09CREpURiAtLT4mI3hhOzxnIGlkPSJlZGdlMTciIGNsYXNzPSJlZGdlIj4mI3hhOzx0aXRsZT5VRFBRV1NKVy0mZ3Q7Wk9PQkRKVEY8L3RpdGxlPiYjeGE7PHBhdGggZmlsbD0ibm9uZSIgc3Ryb2tlPSJibGFjayIgZD0iTTQ5My42MiwtNzUuNzdDNDk2Ljk0LC02NyA1MDEuMTEsLTU1Ljk2IDUwNC44NSwtNDYuMDUiLz4mI3hhOzxwb2x5Z29uIGZpbGw9ImJsYWNrIiBzdHJva2U9ImJsYWNrIiBwb2ludHM9IjUwOC4xNCwtNDcuMjUgNTA4LjQsLTM2LjY2IDUwMS41OSwtNDQuNzggNTA4LjE0LC00Ny4yNSIvPiYjeGE7PC9nPiYjeGE7PCEtLSBNRElZR1NZVyAtLT4mI3hhOzxnIGlkPSJub2RlMjAiIGNsYXNzPSJub2RlIj4mI3hhOzx0aXRsZT5NRElZR1NZVzwvdGl0bGU+JiN4YTs8ZWxsaXBzZSBmaWxsPSJub25lIiBzdHJva2U9ImJsYWNrIiBjeD0iNTY5LjUiIGN5PSItMTkuNSIgcng9IjE5LjUiIHJ5PSIxOS41Ii8+JiN4YTs8dGV4dCB0ZXh0LWFuY2hvcj0ibWlkZGxlIiB4PSI1NjkuNSIgeT0iLTE1LjgiIGZvbnQtZmFtaWx5PSJUaW1lcyxzZXJpZiIgZm9udC1zaXplPSIxNC4wMCI+MTA8L3RleHQ+JiN4YTs8L2c+JiN4YTs8IS0tIFRUS1VKQ0FEJiM0NTsmZ3Q7TURJWUdTWVcgLS0+JiN4YTs8ZyBpZD0iZWRnZTE5IiBjbGFzcz0iZWRnZSI+JiN4YTs8dGl0bGU+VFRLVUpDQUQtJmd0O01ESVlHU1lXPC90aXRsZT4mI3hhOzxwYXRoIGZpbGw9Im5vbmUiIHN0cm9rZT0iYmxhY2siIGQ9Ik01OTEuMTQsLTc1Ljc3QzU4Ny44NiwtNjcuMzkgNTgzLjc3LC01Ni45NSA1ODAuMDQsLTQ3LjQxIi8+JiN4YTs8cG9seWdvbiBmaWxsPSJibGFjayIgc3Ryb2tlPSJibGFjayIgcG9pbnRzPSI1ODMuMjIsLTQ1Ljk0IDU3Ni4zMiwtMzcuOTEgNTc2LjcsLTQ4LjUgNTgzLjIyLC00NS45NCIvPiYjeGE7PC9nPiYjeGE7PCEtLSBYWk9ESFpGVSAtLT4mI3hhOzxnIGlkPSJub2RlMjEiIGNsYXNzPSJub2RlIj4mI3hhOzx0aXRsZT5YWk9ESFpGVTwvdGl0bGU+JiN4YTs8ZWxsaXBzZSBmaWxsPSJub25lIiBzdHJva2U9ImJsYWNrIiBjeD0iNjI0LjUiIGN5PSItMTkuNSIgcng9IjE4IiByeT0iMTgiLz4mI3hhOzx0ZXh0IHRleHQtYW5jaG9yPSJtaWRkbGUiIHg9IjYyNC41IiB5PSItMTUuOCIgZm9udC1mYW1pbHk9IlRpbWVzLHNlcmlmIiBmb250LXNpemU9IjE0LjAwIj43PC90ZXh0PiYjeGE7PC9nPiYjeGE7PCEtLSBUVEtVSkNBRCYjNDU7Jmd0O1haT0RIWkZVIC0tPiYjeGE7PGcgaWQ9ImVkZ2UyMCIgY2xhc3M9ImVkZ2UiPiYjeGE7PHRpdGxlPlRUS1VKQ0FELSZndDtYWk9ESFpGVTwvdGl0bGU+JiN4YTs8cGF0aCBmaWxsPSJub25lIiBzdHJva2U9ImJsYWNrIiBkPSJNNjAzLjYyLC03NS43N0M2MDYuOTQsLTY3IDYxMS4xMSwtNTUuOTYgNjE0Ljg1LC00Ni4wNSIvPiYjeGE7PHBvbHlnb24gZmlsbD0iYmxhY2siIHN0cm9rZT0iYmxhY2siIHBvaW50cz0iNjE4LjE0LC00Ny4yNSA2MTguNCwtMzYuNjYgNjExLjU5LC00NC43OCA2MTguMTQsLTQ3LjI1Ii8+JiN4YTs8L2c+JiN4YTs8IS0tIE5YVk1WWU9WIC0tPiYjeGE7PGcgaWQ9Im5vZGUyMiIgY2xhc3M9Im5vZGUiPiYjeGE7PHRpdGxlPk5YVk1WWU9WPC90aXRsZT4mI3hhOzxlbGxpcHNlIGZpbGw9Im5vbmUiIHN0cm9rZT0iYmxhY2siIGN4PSI2NzguNSIgY3k9Ii0xOS41IiByeD0iMTgiIHJ5PSIxOCIvPiYjeGE7PHRleHQgdGV4dC1hbmNob3I9Im1pZGRsZSIgeD0iNjc4LjUiIHk9Ii0xNS44IiBmb250LWZhbWlseT0iVGltZXMsc2VyaWYiIGZvbnQtc2l6ZT0iMTQuMDAiPjg8L3RleHQ+JiN4YTs8L2c+JiN4YTs8IS0tIFRUS1VKQ0FEJiM0NTsmZ3Q7TlhWTVZZT1YgLS0+JiN4YTs8ZyBpZD0iZWRnZTIxIiBjbGFzcz0iZWRnZSI+JiN4YTs8dGl0bGU+VFRLVUpDQUQtJmd0O05YVk1WWU9WPC90aXRsZT4mI3hhOzxwYXRoIGZpbGw9Im5vbmUiIHN0cm9rZT0iYmxhY2siIGQ9Ik02MTAuNTEsLTgwLjUxQzYyMy4xOSwtNjkuMzIgNjQyLjY3LC01Mi4xMiA2NTcuNTQsLTM5Ii8+JiN4YTs8cG9seWdvbiBmaWxsPSJibGFjayIgc3Ryb2tlPSJibGFjayIgcG9pbnRzPSI2NjAuMDcsLTQxLjQ0IDY2NS4yNSwtMzIuMTkgNjU1LjQzLC0zNi4xOSA2NjAuMDcsLTQxLjQ0Ii8+JiN4YTs8L2c+JiN4YTs8IS0tIENMWENBWVNYIC0tPiYjeGE7PGcgaWQ9Im5vZGUyNCIgY2xhc3M9Im5vZGUiPiYjeGE7PHRpdGxlPkNMWENBWVNYPC90aXRsZT4mI3hhOzxlbGxpcHNlIGZpbGw9Im5vbmUiIHN0cm9rZT0iYmxhY2siIGN4PSI5NzkuNSIgY3k9Ii0xNjUiIHJ4PSIxOCIgcnk9IjE4Ii8+JiN4YTs8L2c+JiN4YTs8IS0tIFpISFVQR0JPJiM0NTsmZ3Q7Q0xYQ0FZU1ggLS0+JiN4YTs8ZyBpZD0iZWRnZTIzIiBjbGFzcz0iZWRnZSI+JiN4YTs8dGl0bGU+WkhIVVBHQk8tJmd0O0NMWENBWVNYPC90aXRsZT4mI3hhOzxwYXRoIGZpbGw9Im5vbmUiIHN0cm9rZT0iYmxhY2siIGQ9Ik0xMzQ4Ljg2LC0yMzIuODFDMTI4Ny40MiwtMjIxLjY5IDEwODIuMzksLTE4NC42MSAxMDA3LjMzLC0xNzEuMDMiLz4mI3hhOzxwb2x5Z29uIGZpbGw9ImJsYWNrIiBzdHJva2U9ImJsYWNrIiBwb2ludHM9IjEwMDcuNywtMTY3LjU0IDk5Ny4yNCwtMTY5LjIgMTAwNi40NSwtMTc0LjQzIDEwMDcuNywtMTY3LjU0Ii8+JiN4YTs8L2c+JiN4YTs8IS0tIE5CWVRWS01XIC0tPiYjeGE7PGcgaWQ9Im5vZGUzMyIgY2xhc3M9Im5vZGUiPiYjeGE7PHRpdGxlPk5CWVRWS01XPC90aXRsZT4mI3hhOzxlbGxpcHNlIGZpbGw9Im5vbmUiIHN0cm9rZT0iYmxhY2siIGN4PSIxMzY2LjUiIGN5PSItMTY1IiByeD0iMTgiIHJ5PSIxOCIvPiYjeGE7PC9nPiYjeGE7PCEtLSBaSEhVUEdCTyYjNDU7Jmd0O05CWVRWS01XIC0tPiYjeGE7PGcgaWQ9ImVkZ2UzMiIgY2xhc3M9ImVkZ2UiPiYjeGE7PHRpdGxlPlpISFVQR0JPLSZndDtOQllUVktNVzwvdGl0bGU+JiN4YTs8cGF0aCBmaWxsPSJub25lIiBzdHJva2U9ImJsYWNrIiBkPSJNMTM2Ni41LC0yMTguNjlDMTM2Ni41LC0yMTAuOTggMTM2Ni41LC0yMDEuNzEgMTM2Ni41LC0xOTMuMTEiLz4mI3hhOzxwb2x5Z29uIGZpbGw9ImJsYWNrIiBzdHJva2U9ImJsYWNrIiBwb2ludHM9IjEzNzAsLTE5My4xIDEzNjYuNSwtMTgzLjEgMTM2MywtMTkzLjEgMTM3MCwtMTkzLjEiLz4mI3hhOzwvZz4mI3hhOzwhLS0gSUFKQUtUU1YgLS0+JiN4YTs8ZyBpZD0ibm9kZTUwIiBjbGFzcz0ibm9kZSI+JiN4YTs8dGl0bGU+SUFKQUtUU1Y8L3RpdGxlPiYjeGE7PGVsbGlwc2UgZmlsbD0ibm9uZSIgc3Ryb2tlPSJibGFjayIgY3g9IjE4NjUuNSIgY3k9Ii0xNjUiIHJ4PSIxOCIgcnk9IjE4Ii8+JiN4YTs8L2c+JiN4YTs8IS0tIFpISFVQR0JPJiM0NTsmZ3Q7SUFKQUtUU1YgLS0+JiN4YTs8ZyBpZD0iZWRnZTQ5IiBjbGFzcz0iZWRnZSI+JiN4YTs8dGl0bGU+WkhIVVBHQk8tJmd0O0lBSkFLVFNWPC90aXRsZT4mI3hhOzxwYXRoIGZpbGw9Im5vbmUiIHN0cm9rZT0iYmxhY2siIGQ9Ik0xMzg0LjI2LC0yMzMuNTFDMTQ1OC43NSwtMjIzLjA2IDE3NDYuMzQsLTE4Mi43MSAxODM3LjU3LC0xNjkuOTEiLz4mI3hhOzxwb2x5Z29uIGZpbGw9ImJsYWNrIiBzdHJva2U9ImJsYWNrIiBwb2ludHM9IjE4MzguMjcsLTE3My4zNSAxODQ3LjY5LC0xNjguNDkgMTgzNy4zLC0xNjYuNDIgMTgzOC4yNywtMTczLjM1Ii8+JiN4YTs8L2c+JiN4YTs8IS0tIE9BWE1BRlFBIC0tPiYjeGE7PGcgaWQ9Im5vZGU2NCIgY2xhc3M9Im5vZGUiPiYjeGE7PHRpdGxlPk9BWE1BRlFBPC90aXRsZT4mI3hhOzxlbGxpcHNlIGZpbGw9Im5vbmUiIHN0cm9rZT0iYmxhY2siIGN4PSIyMzc4LjUiIGN5PSItMTY1IiByeD0iMTgiIHJ5PSIxOCIvPiYjeGE7PC9nPiYjeGE7PCEtLSBaSEhVUEdCTyYjNDU7Jmd0O09BWE1BRlFBIC0tPiYjeGE7PGcgaWQ9ImVkZ2U2MyIgY2xhc3M9ImVkZ2UiPiYjeGE7PHRpdGxlPlpISFVQR0JPLSZndDtPQVhNQUZRQTwvdGl0bGU+JiN4YTs8cGF0aCBmaWxsPSJub25lIiBzdHJva2U9ImJsYWNrIiBkPSJNMTM4NC40OSwtMjM0Ljc1QzE1MDUuNTcsLTIyNi4zOCAyMjAxLjE1LC0xNzguMjYgMjM1MC4zMywtMTY3Ljk0Ii8+JiN4YTs8cG9seWdvbiBmaWxsPSJibGFjayIgc3Ryb2tlPSJibGFjayIgcG9pbnRzPSIyMzUwLjc1LC0xNzEuNDIgMjM2MC40OSwtMTY3LjI0IDIzNTAuMjcsLTE2NC40NCAyMzUwLjc1LC0xNzEuNDIiLz4mI3hhOzwvZz4mI3hhOzwhLS0gR0ZWTEdMTEUgLS0+JiN4YTs8ZyBpZD0ibm9kZTI1IiBjbGFzcz0ibm9kZSI+JiN4YTs8dGl0bGU+R0ZWTEdMTEU8L3RpdGxlPiYjeGE7PGVsbGlwc2UgZmlsbD0ibm9uZSIgc3Ryb2tlPSJibGFjayIgY3g9Ijg0My41IiBjeT0iLTkzIiByeD0iMTgiIHJ5PSIxOCIvPiYjeGE7PC9nPiYjeGE7PCEtLSBDTFhDQVlTWCYjNDU7Jmd0O0dGVkxHTExFIC0tPiYjeGE7PGcgaWQ9ImVkZ2UyNCIgY2xhc3M9ImVkZ2UiPiYjeGE7PHRpdGxlPkNMWENBWVNYLSZndDtHRlZMR0xMRTwvdGl0bGU+JiN4YTs8cGF0aCBmaWxsPSJub25lIiBzdHJva2U9ImJsYWNrIiBkPSJNOTYzLjksLTE1NS45N0M5NDAuNTYsLTE0My45NSA4OTYuMzEsLTEyMS4xOCA4NjguNDUsLTEwNi44NCIvPiYjeGE7PHBvbHlnb24gZmlsbD0iYmxhY2siIHN0cm9rZT0iYmxhY2siIHBvaW50cz0iODY5LjgzLC0xMDMuNjEgODU5LjM0LC0xMDIuMTUgODY2LjYzLC0xMDkuODQgODY5LjgzLC0xMDMuNjEiLz4mI3hhOzwvZz4mI3hhOzwhLS0gTVFQUU9KR1IgLS0+JiN4YTs8ZyBpZD0ibm9kZTMwIiBjbGFzcz0ibm9kZSI+JiN4YTs8dGl0bGU+TVFQUU9KR1I8L3RpdGxlPiYjeGE7PGVsbGlwc2UgZmlsbD0ibm9uZSIgc3Ryb2tlPSJibGFjayIgY3g9Ijk3OS41IiBjeT0iLTkzIiByeD0iMTgiIHJ5PSIxOCIvPiYjeGE7PC9nPiYjeGE7PCEtLSBDTFhDQVlTWCYjNDU7Jmd0O01RUFFPSkdSIC0tPiYjeGE7PGcgaWQ9ImVkZ2UyOSIgY2xhc3M9ImVkZ2UiPiYjeGE7PHRpdGxlPkNMWENBWVNYLSZndDtNUVBRT0pHUjwvdGl0bGU+JiN4YTs8cGF0aCBmaWxsPSJub25lIiBzdHJva2U9ImJsYWNrIiBkPSJNOTc5LjUsLTE0Ni42OUM5NzkuNSwtMTM4Ljk4IDk3OS41LC0xMjkuNzEgOTc5LjUsLTEyMS4xMSIvPiYjeGE7PHBvbHlnb24gZmlsbD0iYmxhY2siIHN0cm9rZT0iYmxhY2siIHBvaW50cz0iOTgzLC0xMjEuMSA5NzkuNSwtMTExLjEgOTc2LC0xMjEuMSA5ODMsLTEyMS4xIi8+JiN4YTs8L2c+JiN4YTs8IS0tIEtaTkpQSkJMIC0tPiYjeGE7PGcgaWQ9Im5vZGUyNiIgY2xhc3M9Im5vZGUiPiYjeGE7PHRpdGxlPktaTkpQSkJMPC90aXRsZT4mI3hhOzxlbGxpcHNlIGZpbGw9Im5vbmUiIHN0cm9rZT0iYmxhY2siIGN4PSI3MzMuNSIgY3k9Ii0xOS41IiByeD0iMTkuNSIgcnk9IjE5LjUiLz4mI3hhOzx0ZXh0IHRleHQtYW5jaG9yPSJtaWRkbGUiIHg9IjczMy41IiB5PSItMTUuOCIgZm9udC1mYW1pbHk9IlRpbWVzLHNlcmlmIiBmb250LXNpemU9IjE0LjAwIj4xNTwvdGV4dD4mI3hhOzwvZz4mI3hhOzwhLS0gR0ZWTEdMTEUmIzQ1OyZndDtLWk5KUEpCTCAtLT4mI3hhOzxnIGlkPSJlZGdlMjUiIGNsYXNzPSJlZGdlIj4mI3hhOzx0aXRsZT5HRlZMR0xMRS0mZ3Q7S1pOSlBKQkw8L3RpdGxlPiYjeGE7PHBhdGggZmlsbD0ibm9uZSIgc3Ryb2tlPSJibGFjayIgZD0iTTgyOC42NiwtODIuNDdDODEyLjIxLC03MS44OSA3ODQuOTEsLTU0LjMgNzYxLjUsLTM5IDc2MC40LC0zOC4yOCA3NTkuMjgsLTM3LjU1IDc1OC4xNSwtMzYuOCIvPiYjeGE7PHBvbHlnb24gZmlsbD0iYmxhY2siIHN0cm9rZT0iYmxhY2siIHBvaW50cz0iNzU5Ljc1LC0zMy42NyA3NDkuNDcsLTMxLjA5IDc1NS45LC0zOS41MSA3NTkuNzUsLTMzLjY3Ii8+JiN4YTs8L2c+JiN4YTs8IS0tIFNIVldPVVhJIC0tPiYjeGE7PGcgaWQ9Im5vZGUyNyIgY2xhc3M9Im5vZGUiPiYjeGE7PHRpdGxlPlNIVldPVVhJPC90aXRsZT4mI3hhOzxlbGxpcHNlIGZpbGw9Im5vbmUiIHN0cm9rZT0iYmxhY2siIGN4PSI3ODguNSIgY3k9Ii0xOS41IiByeD0iMTgiIHJ5PSIxOCIvPiYjeGE7PHRleHQgdGV4dC1hbmNob3I9Im1pZGRsZSIgeD0iNzg4LjUiIHk9Ii0xNS44IiBmb250LWZhbWlseT0iVGltZXMsc2VyaWYiIGZvbnQtc2l6ZT0iMTQuMDAiPjc8L3RleHQ+JiN4YTs8L2c+JiN4YTs8IS0tIEdGVkxHTExFJiM0NTsmZ3Q7U0hWV09VWEkgLS0+JiN4YTs8ZyBpZD0iZWRnZTI2IiBjbGFzcz0iZWRnZSI+JiN4YTs8dGl0bGU+R0ZWTEdMTEUtJmd0O1NIVldPVVhJPC90aXRsZT4mI3hhOzxwYXRoIGZpbGw9Im5vbmUiIHN0cm9rZT0iYmxhY2siIGQ9Ik04MzIuODksLTc4LjIxQzgyNS4wNiwtNjguMDIgODE0LjIzLC01My45NSA4MDUuMjMsLTQyLjI1Ii8+JiN4YTs8cG9seWdvbiBmaWxsPSJibGFjayIgc3Ryb2tlPSJibGFjayIgcG9pbnRzPSI4MDcuOTQsLTQwLjAzIDc5OS4wNywtMzQuMjQgODAyLjM5LC00NC4zIDgwNy45NCwtNDAuMDMiLz4mI3hhOzwvZz4mI3hhOzwhLS0gRFFQQkRKSUggLS0+JiN4YTs8ZyBpZD0ibm9kZTI4IiBjbGFzcz0ibm9kZSI+JiN4YTs8dGl0bGU+RFFQQkRKSUg8L3RpdGxlPiYjeGE7PGVsbGlwc2UgZmlsbD0ibm9uZSIgc3Ryb2tlPSJibGFjayIgY3g9Ijg0My41IiBjeT0iLTE5LjUiIHJ4PSIxOS41IiByeT0iMTkuNSIvPiYjeGE7PHRleHQgdGV4dC1hbmNob3I9Im1pZGRsZSIgeD0iODQzLjUiIHk9Ii0xNS44IiBmb250LWZhbWlseT0iVGltZXMsc2VyaWYiIGZvbnQtc2l6ZT0iMTQuMDAiPjEwPC90ZXh0PiYjeGE7PC9nPiYjeGE7PCEtLSBHRlZMR0xMRSYjNDU7Jmd0O0RRUEJESklIIC0tPiYjeGE7PGcgaWQ9ImVkZ2UyNyIgY2xhc3M9ImVkZ2UiPiYjeGE7PHRpdGxlPkdGVkxHTExFLSZndDtEUVBCREpJSDwvdGl0bGU+JiN4YTs8cGF0aCBmaWxsPSJub25lIiBzdHJva2U9ImJsYWNrIiBkPSJNODQzLjUsLTc0LjY5Qzg0My41LC02Ny4wNSA4NDMuNSwtNTcuODYgODQzLjUsLTQ5LjI0Ii8+JiN4YTs8cG9seWdvbiBmaWxsPSJibGFjayIgc3Ryb2tlPSJibGFjayIgcG9pbnRzPSI4NDcsLTQ5LjE1IDg0My41LC0zOS4xNSA4NDAsLTQ5LjE1IDg0NywtNDkuMTUiLz4mI3hhOzwvZz4mI3hhOzwhLS0gWkVXR0lRUE4gLS0+JiN4YTs8ZyBpZD0ibm9kZTI5IiBjbGFzcz0ibm9kZSI+JiN4YTs8dGl0bGU+WkVXR0lRUE48L3RpdGxlPiYjeGE7PGVsbGlwc2UgZmlsbD0ibm9uZSIgc3Ryb2tlPSJibGFjayIgY3g9Ijg5OC41IiBjeT0iLTE5LjUiIHJ4PSIxOCIgcnk9IjE4Ii8+JiN4YTs8dGV4dCB0ZXh0LWFuY2hvcj0ibWlkZGxlIiB4PSI4OTguNSIgeT0iLTE1LjgiIGZvbnQtZmFtaWx5PSJUaW1lcyxzZXJpZiIgZm9udC1zaXplPSIxNC4wMCI+MjwvdGV4dD4mI3hhOzwvZz4mI3hhOzwhLS0gR0ZWTEdMTEUmIzQ1OyZndDtaRVdHSVFQTiAtLT4mI3hhOzxnIGlkPSJlZGdlMjgiIGNsYXNzPSJlZGdlIj4mI3hhOzx0aXRsZT5HRlZMR0xMRS0mZ3Q7WkVXR0lRUE48L3RpdGxlPiYjeGE7PHBhdGggZmlsbD0ibm9uZSIgc3Ryb2tlPSJibGFjayIgZD0iTTg1NC4xLC03OC4yMUM4NjEuOTQsLTY4LjAyIDg3Mi43NywtNTMuOTUgODgxLjc3LC00Mi4yNSIvPiYjeGE7PHBvbHlnb24gZmlsbD0iYmxhY2siIHN0cm9rZT0iYmxhY2siIHBvaW50cz0iODg0LjYsLTQ0LjMgODg3LjkzLC0zNC4yNCA4NzkuMDUsLTQwLjAzIDg4NC42LC00NC4zIi8+JiN4YTs8L2c+JiN4YTs8IS0tIEJSSlBIUUhTIC0tPiYjeGE7PGcgaWQ9Im5vZGUzMSIgY2xhc3M9Im5vZGUiPiYjeGE7PHRpdGxlPkJSSlBIUUhTPC90aXRsZT4mI3hhOzxlbGxpcHNlIGZpbGw9Im5vbmUiIHN0cm9rZT0iYmxhY2siIGN4PSI5NTIuNSIgY3k9Ii0xOS41IiByeD0iMTgiIHJ5PSIxOCIvPiYjeGE7PHRleHQgdGV4dC1hbmNob3I9Im1pZGRsZSIgeD0iOTUyLjUiIHk9Ii0xNS44IiBmb250LWZhbWlseT0iVGltZXMsc2VyaWYiIGZvbnQtc2l6ZT0iMTQuMDAiPjY8L3RleHQ+JiN4YTs8L2c+JiN4YTs8IS0tIE1RUFFPSkdSJiM0NTsmZ3Q7QlJKUEhRSFMgLS0+JiN4YTs8ZyBpZD0iZWRnZTMwIiBjbGFzcz0iZWRnZSI+JiN4YTs8dGl0bGU+TVFQUU9KR1ItJmd0O0JSSlBIUUhTPC90aXRsZT4mI3hhOzxwYXRoIGZpbGw9Im5vbmUiIHN0cm9rZT0iYmxhY2siIGQ9Ik05NzMuMzcsLTc1Ljc3Qzk3MC4wNiwtNjcgOTY1Ljg5LC01NS45NiA5NjIuMTUsLTQ2LjA1Ii8+JiN4YTs8cG9seWdvbiBmaWxsPSJibGFjayIgc3Ryb2tlPSJibGFjayIgcG9pbnRzPSI5NjUuNDEsLTQ0Ljc4IDk1OC42LC0zNi42NiA5NTguODYsLTQ3LjI1IDk2NS40MSwtNDQuNzgiLz4mI3hhOzwvZz4mI3hhOzwhLS0gTkZDQUhQQVkgLS0+JiN4YTs8ZyBpZD0ibm9kZTMyIiBjbGFzcz0ibm9kZSI+JiN4YTs8dGl0bGU+TkZDQUhQQVk8L3RpdGxlPiYjeGE7PGVsbGlwc2UgZmlsbD0ibm9uZSIgc3Ryb2tlPSJibGFjayIgY3g9IjEwMDYuNSIgY3k9Ii0xOS41IiByeD0iMTgiIHJ5PSIxOCIvPiYjeGE7PHRleHQgdGV4dC1hbmNob3I9Im1pZGRsZSIgeD0iMTAwNi41IiB5PSItMTUuOCIgZm9udC1mYW1pbHk9IlRpbWVzLHNlcmlmIiBmb250LXNpemU9IjE0LjAwIj44PC90ZXh0PiYjeGE7PC9nPiYjeGE7PCEtLSBNUVBRT0pHUiYjNDU7Jmd0O05GQ0FIUEFZIC0tPiYjeGE7PGcgaWQ9ImVkZ2UzMSIgY2xhc3M9ImVkZ2UiPiYjeGE7PHRpdGxlPk1RUFFPSkdSLSZndDtORkNBSFBBWTwvdGl0bGU+JiN4YTs8cGF0aCBmaWxsPSJub25lIiBzdHJva2U9ImJsYWNrIiBkPSJNOTg1LjYyLC03NS43N0M5ODguOTQsLTY3IDk5My4xMSwtNTUuOTYgOTk2Ljg1LC00Ni4wNSIvPiYjeGE7PHBvbHlnb24gZmlsbD0iYmxhY2siIHN0cm9rZT0iYmxhY2siIHBvaW50cz0iMTAwMC4xNCwtNDcuMjUgMTAwMC40LC0zNi42NiA5OTMuNTksLTQ0Ljc4IDEwMDAuMTQsLTQ3LjI1Ii8+JiN4YTs8L2c+JiN4YTs8IS0tIFZDTUtRUVREIC0tPiYjeGE7PGcgaWQ9Im5vZGUzNCIgY2xhc3M9Im5vZGUiPiYjeGE7PHRpdGxlPlZDTUtRUVREPC90aXRsZT4mI3hhOzxlbGxpcHNlIGZpbGw9Im5vbmUiIHN0cm9rZT0iYmxhY2siIGN4PSIxMTQzLjUiIGN5PSItOTMiIHJ4PSIxOCIgcnk9IjE4Ii8+JiN4YTs8L2c+JiN4YTs8IS0tIE5CWVRWS01XJiM0NTsmZ3Q7VkNNS1FRVEQgLS0+JiN4YTs8ZyBpZD0iZWRnZTMzIiBjbGFzcz0iZWRnZSI+JiN4YTs8dGl0bGU+TkJZVFZLTVctJmd0O1ZDTUtRUVREPC90aXRsZT4mI3hhOzxwYXRoIGZpbGw9Im5vbmUiIHN0cm9rZT0iYmxhY2siIGQ9Ik0xMzQ5LjM3LC0xNTguNjJDMTMxMC42OCwtMTQ2LjQ4IDEyMTYuMzMsLTExNi44NiAxMTcwLjAyLC0xMDIuMzIiLz4mI3hhOzxwb2x5Z29uIGZpbGw9ImJsYWNrIiBzdHJva2U9ImJsYWNrIiBwb2ludHM9IjExNzAuOTcsLTk4Ljk1IDExNjAuMzgsLTk5LjMgMTE2OC44NywtMTA1LjYzIDExNzAuOTcsLTk4Ljk1Ii8+JiN4YTs8L2c+JiN4YTs8IS0tIFNDRE1TS0VUIC0tPiYjeGE7PGcgaWQ9Im5vZGUzOCIgY2xhc3M9Im5vZGUiPiYjeGE7PHRpdGxlPlNDRE1TS0VUPC90aXRsZT4mI3hhOzxlbGxpcHNlIGZpbGw9Im5vbmUiIHN0cm9rZT0iYmxhY2siIGN4PSIxMzEwLjUiIGN5PSItOTMiIHJ4PSIxOCIgcnk9IjE4Ii8+JiN4YTs8L2c+JiN4YTs8IS0tIE5CWVRWS01XJiM0NTsmZ3Q7U0NETVNLRVQgLS0+JiN4YTs8ZyBpZD0iZWRnZTM3IiBjbGFzcz0iZWRnZSI+JiN4YTs8dGl0bGU+TkJZVFZLTVctJmd0O1NDRE1TS0VUPC90aXRsZT4mI3hhOzxwYXRoIGZpbGw9Im5vbmUiIHN0cm9rZT0iYmxhY2siIGQ9Ik0xMzU1LjcsLTE1MC41QzEzNDcuNzIsLTE0MC41MyAxMzM2LjcsLTEyNi43NSAxMzI3LjU0LC0xMTUuMjkiLz4mI3hhOzxwb2x5Z29uIGZpbGw9ImJsYWNrIiBzdHJva2U9ImJsYWNrIiBwb2ludHM9IjEzMzAuMjQsLTExMy4wNyAxMzIxLjI2LC0xMDcuNDUgMTMyNC43OCwtMTE3LjQ1IDEzMzAuMjQsLTExMy4wNyIvPiYjeGE7PC9nPiYjeGE7PCEtLSBQQ0VKR09PWiAtLT4mI3hhOzxnIGlkPSJub2RlNDIiIGNsYXNzPSJub2RlIj4mI3hhOzx0aXRsZT5QQ0VKR09PWjwvdGl0bGU+JiN4YTs8ZWxsaXBzZSBmaWxsPSJub25lIiBzdHJva2U9ImJsYWNrIiBjeD0iMTQyMy41IiBjeT0iLTkzIiByeD0iMTgiIHJ5PSIxOCIvPiYjeGE7PC9nPiYjeGE7PCEtLSBOQllUVktNVyYjNDU7Jmd0O1BDRUpHT09aIC0tPiYjeGE7PGcgaWQ9ImVkZ2U0MSIgY2xhc3M9ImVkZ2UiPiYjeGE7PHRpdGxlPk5CWVRWS01XLSZndDtQQ0VKR09PWjwvdGl0bGU+JiN4YTs8cGF0aCBmaWxsPSJub25lIiBzdHJva2U9ImJsYWNrIiBkPSJNMTM3Ny40OSwtMTUwLjVDMTM4NS42MSwtMTQwLjUzIDEzOTYuODMsLTEyNi43NSAxNDA2LjE2LC0xMTUuMjkiLz4mI3hhOzxwb2x5Z29uIGZpbGw9ImJsYWNrIiBzdHJva2U9ImJsYWNrIiBwb2ludHM9IjE0MDguOTQsLTExNy40MiAxNDEyLjU0LC0xMDcuNDUgMTQwMy41MSwtMTEzIDE0MDguOTQsLTExNy40MiIvPiYjeGE7PC9nPiYjeGE7PCEtLSBDSFhSQkNVVyAtLT4mI3hhOzxnIGlkPSJub2RlNDYiIGNsYXNzPSJub2RlIj4mI3hhOzx0aXRsZT5DSFhSQkNVVzwvdGl0bGU+JiN4YTs8ZWxsaXBzZSBmaWxsPSJub25lIiBzdHJva2U9ImJsYWNrIiBjeD0iMTU5MS41IiBjeT0iLTkzIiByeD0iMTgiIHJ5PSIxOCIvPiYjeGE7PC9nPiYjeGE7PCEtLSBOQllUVktNVyYjNDU7Jmd0O0NIWFJCQ1VXIC0tPiYjeGE7PGcgaWQ9ImVkZ2U0NSIgY2xhc3M9ImVkZ2UiPiYjeGE7PHRpdGxlPk5CWVRWS01XLSZndDtDSFhSQkNVVzwvdGl0bGU+JiN4YTs8cGF0aCBmaWxsPSJub25lIiBzdHJva2U9ImJsYWNrIiBkPSJNMTM4My40MSwtMTU4Ljc0QzE0MjIuMTgsLTE0Ni42NyAxNTE3LjcxLC0xMTYuOTUgMTU2NC42MywtMTAyLjM2Ii8+JiN4YTs8cG9seWdvbiBmaWxsPSJibGFjayIgc3Ryb2tlPSJibGFjayIgcG9pbnRzPSIxNTY1Ljg4LC0xMDUuNjMgMTU3NC4zOSwtOTkuMzIgMTU2My44LC05OC45NSAxNTY1Ljg4LC0xMDUuNjMiLz4mI3hhOzwvZz4mI3hhOzwhLS0gTVVWUFpZSEwgLS0+JiN4YTs8ZyBpZD0ibm9kZTM1IiBjbGFzcz0ibm9kZSI+JiN4YTs8dGl0bGU+TVVWUFpZSEw8L3RpdGxlPiYjeGE7PGVsbGlwc2UgZmlsbD0ibm9uZSIgc3Ryb2tlPSJibGFjayIgY3g9IjEwNjEuNSIgY3k9Ii0xOS41IiByeD0iMTkuNSIgcnk9IjE5LjUiLz4mI3hhOzx0ZXh0IHRleHQtYW5jaG9yPSJtaWRkbGUiIHg9IjEwNjEuNSIgeT0iLTE1LjgiIGZvbnQtZmFtaWx5PSJUaW1lcyxzZXJpZiIgZm9udC1zaXplPSIxNC4wMCI+MTI8L3RleHQ+JiN4YTs8L2c+JiN4YTs8IS0tIFZDTUtRUVREJiM0NTsmZ3Q7TVVWUFpZSEwgLS0+JiN4YTs8ZyBpZD0iZWRnZTM0IiBjbGFzcz0iZWRnZSI+JiN4YTs8dGl0bGU+VkNNS1FRVEQtJmd0O01VVlBaWUhMPC90aXRsZT4mI3hhOzxwYXRoIGZpbGw9Im5vbmUiIHN0cm9rZT0iYmxhY2siIGQ9Ik0xMTMwLjMyLC04MC41MUMxMTE3LjcyLC02OS41MiAxMDk4LjQ3LC01Mi43MyAxMDgzLjUzLC0zOS43MSIvPiYjeGE7PHBvbHlnb24gZmlsbD0iYmxhY2siIHN0cm9rZT0iYmxhY2siIHBvaW50cz0iMTA4NS41OCwtMzYuODUgMTA3NS43NCwtMzIuOTIgMTA4MC45OCwtNDIuMTMgMTA4NS41OCwtMzYuODUiLz4mI3hhOzwvZz4mI3hhOzwhLS0gR0NESklYSEsgLS0+JiN4YTs8ZyBpZD0ibm9kZTM2IiBjbGFzcz0ibm9kZSI+JiN4YTs8dGl0bGU+R0NESklYSEs8L3RpdGxlPiYjeGE7PGVsbGlwc2UgZmlsbD0ibm9uZSIgc3Ryb2tlPSJibGFjayIgY3g9IjExMTYuNSIgY3k9Ii0xOS41IiByeD0iMTgiIHJ5PSIxOCIvPiYjeGE7PHRleHQgdGV4dC1hbmNob3I9Im1pZGRsZSIgeD0iMTExNi41IiB5PSItMTUuOCIgZm9udC1mYW1pbHk9IlRpbWVzLHNlcmlmIiBmb250LXNpemU9IjE0LjAwIj40PC90ZXh0PiYjeGE7PC9nPiYjeGE7PCEtLSBWQ01LUVFURCYjNDU7Jmd0O0dDREpJWEhLIC0tPiYjeGE7PGcgaWQ9ImVkZ2UzNSIgY2xhc3M9ImVkZ2UiPiYjeGE7PHRpdGxlPlZDTUtRUVRELSZndDtHQ0RKSVhISzwvdGl0bGU+JiN4YTs8cGF0aCBmaWxsPSJub25lIiBzdHJva2U9ImJsYWNrIiBkPSJNMTEzNy4zNywtNzUuNzdDMTEzNC4wNiwtNjcgMTEyOS44OSwtNTUuOTYgMTEyNi4xNSwtNDYuMDUiLz4mI3hhOzxwb2x5Z29uIGZpbGw9ImJsYWNrIiBzdHJva2U9ImJsYWNrIiBwb2ludHM9IjExMjkuNDEsLTQ0Ljc4IDExMjIuNiwtMzYuNjYgMTEyMi44NiwtNDcuMjUgMTEyOS40MSwtNDQuNzgiLz4mI3hhOzwvZz4mI3hhOzwhLS0gVVVKUEFQVFcgLS0+JiN4YTs8ZyBpZD0ibm9kZTM3IiBjbGFzcz0ibm9kZSI+JiN4YTs8dGl0bGU+VVVKUEFQVFc8L3RpdGxlPiYjeGE7PGVsbGlwc2UgZmlsbD0ibm9uZSIgc3Ryb2tlPSJibGFjayIgY3g9IjExNzEuNSIgY3k9Ii0xOS41IiByeD0iMTkuNSIgcnk9IjE5LjUiLz4mI3hhOzx0ZXh0IHRleHQtYW5jaG9yPSJtaWRkbGUiIHg9IjExNzEuNSIgeT0iLTE1LjgiIGZvbnQtZmFtaWx5PSJUaW1lcyxzZXJpZiIgZm9udC1zaXplPSIxNC4wMCI+MTU8L3RleHQ+JiN4YTs8L2c+JiN4YTs8IS0tIFZDTUtRUVREJiM0NTsmZ3Q7VVVKUEFQVFcgLS0+JiN4YTs8ZyBpZD0iZWRnZTM2IiBjbGFzcz0iZWRnZSI+JiN4YTs8dGl0bGU+VkNNS1FRVEQtJmd0O1VVSlBBUFRXPC90aXRsZT4mI3hhOzxwYXRoIGZpbGw9Im5vbmUiIHN0cm9rZT0iYmxhY2siIGQ9Ik0xMTQ5Ljg1LC03NS43N0MxMTUzLjEzLC02Ny4zOSAxMTU3LjIyLC01Ni45NSAxMTYwLjk2LC00Ny40MSIvPiYjeGE7PHBvbHlnb24gZmlsbD0iYmxhY2siIHN0cm9rZT0iYmxhY2siIHBvaW50cz0iMTE2NC4yOSwtNDguNSAxMTY0LjY4LC0zNy45MSAxMTU3Ljc3LC00NS45NCAxMTY0LjI5LC00OC41Ii8+JiN4YTs8L2c+JiN4YTs8IS0tIFBWRVJMRlBWIC0tPiYjeGE7PGcgaWQ9Im5vZGUzOSIgY2xhc3M9Im5vZGUiPiYjeGE7PHRpdGxlPlBWRVJMRlBWPC90aXRsZT4mI3hhOzxlbGxpcHNlIGZpbGw9Im5vbmUiIHN0cm9rZT0iYmxhY2siIGN4PSIxMjI4LjUiIGN5PSItMTkuNSIgcng9IjE5LjUiIHJ5PSIxOS41Ii8+JiN4YTs8dGV4dCB0ZXh0LWFuY2hvcj0ibWlkZGxlIiB4PSIxMjI4LjUiIHk9Ii0xNS44IiBmb250LWZhbWlseT0iVGltZXMsc2VyaWYiIGZvbnQtc2l6ZT0iMTQuMDAiPjEzPC90ZXh0PiYjeGE7PC9nPiYjeGE7PCEtLSBTQ0RNU0tFVCYjNDU7Jmd0O1BWRVJMRlBWIC0tPiYjeGE7PGcgaWQ9ImVkZ2UzOCIgY2xhc3M9ImVkZ2UiPiYjeGE7PHRpdGxlPlNDRE1TS0VULSZndDtQVkVSTEZQVjwvdGl0bGU+JiN4YTs8cGF0aCBmaWxsPSJub25lIiBzdHJva2U9ImJsYWNrIiBkPSJNMTI5Ny4zMiwtODAuNTFDMTI4NC43MiwtNjkuNTIgMTI2NS40NywtNTIuNzMgMTI1MC41MywtMzkuNzEiLz4mI3hhOzxwb2x5Z29uIGZpbGw9ImJsYWNrIiBzdHJva2U9ImJsYWNrIiBwb2ludHM9IjEyNTIuNTgsLTM2Ljg1IDEyNDIuNzQsLTMyLjkyIDEyNDcuOTgsLTQyLjEzIDEyNTIuNTgsLTM2Ljg1Ii8+JiN4YTs8L2c+JiN4YTs8IS0tIFdRWEVaSVVMIC0tPiYjeGE7PGcgaWQ9Im5vZGU0MCIgY2xhc3M9Im5vZGUiPiYjeGE7PHRpdGxlPldRWEVaSVVMPC90aXRsZT4mI3hhOzxlbGxpcHNlIGZpbGw9Im5vbmUiIHN0cm9rZT0iYmxhY2siIGN4PSIxMjgzLjUiIGN5PSItMTkuNSIgcng9IjE4IiByeT0iMTgiLz4mI3hhOzx0ZXh0IHRleHQtYW5jaG9yPSJtaWRkbGUiIHg9IjEyODMuNSIgeT0iLTE1LjgiIGZvbnQtZmFtaWx5PSJUaW1lcyxzZXJpZiIgZm9udC1zaXplPSIxNC4wMCI+NDwvdGV4dD4mI3hhOzwvZz4mI3hhOzwhLS0gU0NETVNLRVQmIzQ1OyZndDtXUVhFWklVTCAtLT4mI3hhOzxnIGlkPSJlZGdlMzkiIGNsYXNzPSJlZGdlIj4mI3hhOzx0aXRsZT5TQ0RNU0tFVC0mZ3Q7V1FYRVpJVUw8L3RpdGxlPiYjeGE7PHBhdGggZmlsbD0ibm9uZSIgc3Ryb2tlPSJibGFjayIgZD0iTTEzMDQuMzcsLTc1Ljc3QzEzMDEuMDYsLTY3IDEyOTYuODksLTU1Ljk2IDEyOTMuMTUsLTQ2LjA1Ii8+JiN4YTs8cG9seWdvbiBmaWxsPSJibGFjayIgc3Ryb2tlPSJibGFjayIgcG9pbnRzPSIxMjk2LjQxLC00NC43OCAxMjg5LjYsLTM2LjY2IDEyODkuODYsLTQ3LjI1IDEyOTYuNDEsLTQ0Ljc4Ii8+JiN4YTs8L2c+JiN4YTs8IS0tIFJJTVNUSkVSIC0tPiYjeGE7PGcgaWQ9Im5vZGU0MSIgY2xhc3M9Im5vZGUiPiYjeGE7PHRpdGxlPlJJTVNUSkVSPC90aXRsZT4mI3hhOzxlbGxpcHNlIGZpbGw9Im5vbmUiIHN0cm9rZT0iYmxhY2siIGN4PSIxMzM4LjUiIGN5PSItMTkuNSIgcng9IjE5LjUiIHJ5PSIxOS41Ii8+JiN4YTs8dGV4dCB0ZXh0LWFuY2hvcj0ibWlkZGxlIiB4PSIxMzM4LjUiIHk9Ii0xNS44IiBmb250LWZhbWlseT0iVGltZXMsc2VyaWYiIGZvbnQtc2l6ZT0iMTQuMDAiPjEyPC90ZXh0PiYjeGE7PC9nPiYjeGE7PCEtLSBTQ0RNU0tFVCYjNDU7Jmd0O1JJTVNUSkVSIC0tPiYjeGE7PGcgaWQ9ImVkZ2U0MCIgY2xhc3M9ImVkZ2UiPiYjeGE7PHRpdGxlPlNDRE1TS0VULSZndDtSSU1TVEpFUjwvdGl0bGU+JiN4YTs8cGF0aCBmaWxsPSJub25lIiBzdHJva2U9ImJsYWNrIiBkPSJNMTMxNi44NSwtNzUuNzdDMTMyMC4xMywtNjcuMzkgMTMyNC4yMiwtNTYuOTUgMTMyNy45NiwtNDcuNDEiLz4mI3hhOzxwb2x5Z29uIGZpbGw9ImJsYWNrIiBzdHJva2U9ImJsYWNrIiBwb2ludHM9IjEzMzEuMjksLTQ4LjUgMTMzMS42OCwtMzcuOTEgMTMyNC43NywtNDUuOTQgMTMzMS4yOSwtNDguNSIvPiYjeGE7PC9nPiYjeGE7PCEtLSBKVk9XQlFCTyAtLT4mI3hhOzxnIGlkPSJub2RlNDMiIGNsYXNzPSJub2RlIj4mI3hhOzx0aXRsZT5KVk9XQlFCTzwvdGl0bGU+JiN4YTs8ZWxsaXBzZSBmaWxsPSJub25lIiBzdHJva2U9ImJsYWNrIiBjeD0iMTM5NS41IiBjeT0iLTE5LjUiIHJ4PSIxOS41IiByeT0iMTkuNSIvPiYjeGE7PHRleHQgdGV4dC1hbmNob3I9Im1pZGRsZSIgeD0iMTM5NS41IiB5PSItMTUuOCIgZm9udC1mYW1pbHk9IlRpbWVzLHNlcmlmIiBmb250LXNpemU9IjE0LjAwIj4xMzwvdGV4dD4mI3hhOzwvZz4mI3hhOzwhLS0gUENFSkdPT1omIzQ1OyZndDtKVk9XQlFCTyAtLT4mI3hhOzxnIGlkPSJlZGdlNDIiIGNsYXNzPSJlZGdlIj4mI3hhOzx0aXRsZT5QQ0VKR09PWi0mZ3Q7SlZPV0JRQk88L3RpdGxlPiYjeGE7PHBhdGggZmlsbD0ibm9uZSIgc3Ryb2tlPSJibGFjayIgZD0iTTE0MTcuMTQsLTc1Ljc3QzE0MTMuODYsLTY3LjM5IDE0MDkuNzcsLTU2Ljk1IDE0MDYuMDQsLTQ3LjQxIi8+JiN4YTs8cG9seWdvbiBmaWxsPSJibGFjayIgc3Ryb2tlPSJibGFjayIgcG9pbnRzPSIxNDA5LjIyLC00NS45NCAxNDAyLjMyLC0zNy45MSAxNDAyLjcsLTQ4LjUgMTQwOS4yMiwtNDUuOTQiLz4mI3hhOzwvZz4mI3hhOzwhLS0gSkNIWVNaWk8gLS0+JiN4YTs8ZyBpZD0ibm9kZTQ0IiBjbGFzcz0ibm9kZSI+JiN4YTs8dGl0bGU+SkNIWVNaWk88L3RpdGxlPiYjeGE7PGVsbGlwc2UgZmlsbD0ibm9uZSIgc3Ryb2tlPSJibGFjayIgY3g9IjE0NTIuNSIgY3k9Ii0xOS41IiByeD0iMTkuNSIgcnk9IjE5LjUiLz4mI3hhOzx0ZXh0IHRleHQtYW5jaG9yPSJtaWRkbGUiIHg9IjE0NTIuNSIgeT0iLTE1LjgiIGZvbnQtZmFtaWx5PSJUaW1lcyxzZXJpZiIgZm9udC1zaXplPSIxNC4wMCI+MTQ8L3RleHQ+JiN4YTs8L2c+JiN4YTs8IS0tIFBDRUpHT09aJiM0NTsmZ3Q7SkNIWVNaWk8gLS0+JiN4YTs8ZyBpZD0iZWRnZTQzIiBjbGFzcz0iZWRnZSI+JiN4YTs8dGl0bGU+UENFSkdPT1otJmd0O0pDSFlTWlpPPC90aXRsZT4mI3hhOzxwYXRoIGZpbGw9Im5vbmUiIHN0cm9rZT0iYmxhY2siIGQ9Ik0xNDI5LjkzLC03Ni4xM0MxNDMzLjM5LC02Ny42MSAxNDM3Ljc0LC01Ni44OSAxNDQxLjY5LC00Ny4xNCIvPiYjeGE7PHBvbHlnb24gZmlsbD0iYmxhY2siIHN0cm9rZT0iYmxhY2siIHBvaW50cz0iMTQ0NC45NiwtNDguNDEgMTQ0NS40NywtMzcuODIgMTQzOC40NywtNDUuNzcgMTQ0NC45NiwtNDguNDEiLz4mI3hhOzwvZz4mI3hhOzwhLS0gSVJJTENTVVUgLS0+JiN4YTs8ZyBpZD0ibm9kZTQ1IiBjbGFzcz0ibm9kZSI+JiN4YTs8dGl0bGU+SVJJTENTVVU8L3RpdGxlPiYjeGE7PGVsbGlwc2UgZmlsbD0ibm9uZSIgc3Ryb2tlPSJibGFjayIgY3g9IjE1MDkuNSIgY3k9Ii0xOS41IiByeD0iMTkuNSIgcnk9IjE5LjUiLz4mI3hhOzx0ZXh0IHRleHQtYW5jaG9yPSJtaWRkbGUiIHg9IjE1MDkuNSIgeT0iLTE1LjgiIGZvbnQtZmFtaWx5PSJUaW1lcyxzZXJpZiIgZm9udC1zaXplPSIxNC4wMCI+MTM8L3RleHQ+JiN4YTs8L2c+JiN4YTs8IS0tIFBDRUpHT09aJiM0NTsmZ3Q7SVJJTENTVVUgLS0+JiN4YTs8ZyBpZD0iZWRnZTQ0IiBjbGFzcz0iZWRnZSI+JiN4YTs8dGl0bGU+UENFSkdPT1otJmd0O0lSSUxDU1VVPC90aXRsZT4mI3hhOzxwYXRoIGZpbGw9Im5vbmUiIHN0cm9rZT0iYmxhY2siIGQ9Ik0xNDM2Ljk0LC04MC44MkMxNDUwLjM3LC02OS42NSAxNDcxLjI3LC01Mi4yOCAxNDg3LjIsLTM5LjA0Ii8+JiN4YTs8cG9seWdvbiBmaWxsPSJibGFjayIgc3Ryb2tlPSJibGFjayIgcG9pbnRzPSIxNDg5LjU1LC00MS42MyAxNDk1LjAxLC0zMi41NSAxNDg1LjA4LC0zNi4yNSAxNDg5LjU1LC00MS42MyIvPiYjeGE7PC9nPiYjeGE7PCEtLSBYVU9MR0FYRCAtLT4mI3hhOzxnIGlkPSJub2RlNDciIGNsYXNzPSJub2RlIj4mI3hhOzx0aXRsZT5YVU9MR0FYRDwvdGl0bGU+JiN4YTs8ZWxsaXBzZSBmaWxsPSJub25lIiBzdHJva2U9ImJsYWNrIiBjeD0iMTU2NC41IiBjeT0iLTE5LjUiIHJ4PSIxOCIgcnk9IjE4Ii8+JiN4YTs8dGV4dCB0ZXh0LWFuY2hvcj0ibWlkZGxlIiB4PSIxNTY0LjUiIHk9Ii0xNS44IiBmb250LWZhbWlseT0iVGltZXMsc2VyaWYiIGZvbnQtc2l6ZT0iMTQuMDAiPjc8L3RleHQ+JiN4YTs8L2c+JiN4YTs8IS0tIENIWFJCQ1VXJiM0NTsmZ3Q7WFVPTEdBWEQgLS0+JiN4YTs8ZyBpZD0iZWRnZTQ2IiBjbGFzcz0iZWRnZSI+JiN4YTs8dGl0bGU+Q0hYUkJDVVctJmd0O1hVT0xHQVhEPC90aXRsZT4mI3hhOzxwYXRoIGZpbGw9Im5vbmUiIHN0cm9rZT0iYmxhY2siIGQ9Ik0xNTg1LjM3LC03NS43N0MxNTgyLjA2LC02NyAxNTc3Ljg5LC01NS45NiAxNTc0LjE1LC00Ni4wNSIvPiYjeGE7PHBvbHlnb24gZmlsbD0iYmxhY2siIHN0cm9rZT0iYmxhY2siIHBvaW50cz0iMTU3Ny40MSwtNDQuNzggMTU3MC42LC0zNi42NiAxNTcwLjg2LC00Ny4yNSAxNTc3LjQxLC00NC43OCIvPiYjeGE7PC9nPiYjeGE7PCEtLSBYRFpITlFGWCAtLT4mI3hhOzxnIGlkPSJub2RlNDgiIGNsYXNzPSJub2RlIj4mI3hhOzx0aXRsZT5YRFpITlFGWDwvdGl0bGU+JiN4YTs8ZWxsaXBzZSBmaWxsPSJub25lIiBzdHJva2U9ImJsYWNrIiBjeD0iMTYxOS41IiBjeT0iLTE5LjUiIHJ4PSIxOS41IiByeT0iMTkuNSIvPiYjeGE7PHRleHQgdGV4dC1hbmNob3I9Im1pZGRsZSIgeD0iMTYxOS41IiB5PSItMTUuOCIgZm9udC1mYW1pbHk9IlRpbWVzLHNlcmlmIiBmb250LXNpemU9IjE0LjAwIj4xNTwvdGV4dD4mI3hhOzwvZz4mI3hhOzwhLS0gQ0hYUkJDVVcmIzQ1OyZndDtYRFpITlFGWCAtLT4mI3hhOzxnIGlkPSJlZGdlNDciIGNsYXNzPSJlZGdlIj4mI3hhOzx0aXRsZT5DSFhSQkNVVy0mZ3Q7WERaSE5RRlg8L3RpdGxlPiYjeGE7PHBhdGggZmlsbD0ibm9uZSIgc3Ryb2tlPSJibGFjayIgZD0iTTE1OTcuODUsLTc1Ljc3QzE2MDEuMTMsLTY3LjM5IDE2MDUuMjIsLTU2Ljk1IDE2MDguOTYsLTQ3LjQxIi8+JiN4YTs8cG9seWdvbiBmaWxsPSJibGFjayIgc3Ryb2tlPSJibGFjayIgcG9pbnRzPSIxNjEyLjI5LC00OC41IDE2MTIuNjgsLTM3LjkxIDE2MDUuNzcsLTQ1Ljk0IDE2MTIuMjksLTQ4LjUiLz4mI3hhOzwvZz4mI3hhOzwhLS0gWllSQUdTT0QgLS0+JiN4YTs8ZyBpZD0ibm9kZTQ5IiBjbGFzcz0ibm9kZSI+JiN4YTs8dGl0bGU+WllSQUdTT0Q8L3RpdGxlPiYjeGE7PGVsbGlwc2UgZmlsbD0ibm9uZSIgc3Ryb2tlPSJibGFjayIgY3g9IjE2NzQuNSIgY3k9Ii0xOS41IiByeD0iMTgiIHJ5PSIxOCIvPiYjeGE7PHRleHQgdGV4dC1hbmNob3I9Im1pZGRsZSIgeD0iMTY3NC41IiB5PSItMTUuOCIgZm9udC1mYW1pbHk9IlRpbWVzLHNlcmlmIiBmb250LXNpemU9IjE0LjAwIj4xPC90ZXh0PiYjeGE7PC9nPiYjeGE7PCEtLSBDSFhSQkNVVyYjNDU7Jmd0O1pZUkFHU09EIC0tPiYjeGE7PGcgaWQ9ImVkZ2U0OCIgY2xhc3M9ImVkZ2UiPiYjeGE7PHRpdGxlPkNIWFJCQ1VXLSZndDtaWVJBR1NPRDwvdGl0bGU+JiN4YTs8cGF0aCBmaWxsPSJub25lIiBzdHJva2U9ImJsYWNrIiBkPSJNMTYwNC44MywtODAuNTFDMTYxNy45LC02OS4yNSAxNjM4LjAzLC01MS45MiAxNjUzLjI5LC0zOC43NyIvPiYjeGE7PHBvbHlnb24gZmlsbD0iYmxhY2siIHN0cm9rZT0iYmxhY2siIHBvaW50cz0iMTY1NS45LC00MS4xNCAxNjYxLjIsLTMxLjk2IDE2NTEuMzQsLTM1LjgzIDE2NTUuOSwtNDEuMTQiLz4mI3hhOzwvZz4mI3hhOzwhLS0gVk9WWElVUEMgLS0+JiN4YTs8ZyBpZD0ibm9kZTUxIiBjbGFzcz0ibm9kZSI+JiN4YTs8dGl0bGU+Vk9WWElVUEM8L3RpdGxlPiYjeGE7PGVsbGlwc2UgZmlsbD0ibm9uZSIgc3Ryb2tlPSJibGFjayIgY3g9IjE3ODQuNSIgY3k9Ii05MyIgcng9IjE4IiByeT0iMTgiLz4mI3hhOzwvZz4mI3hhOzwhLS0gSUFKQUtUU1YmIzQ1OyZndDtWT1ZYSVVQQyAtLT4mI3hhOzxnIGlkPSJlZGdlNTAiIGNsYXNzPSJlZGdlIj4mI3hhOzx0aXRsZT5JQUpBS1RTVi0mZ3Q7Vk9WWElVUEM8L3RpdGxlPiYjeGE7PHBhdGggZmlsbD0ibm9uZSIgc3Ryb2tlPSJibGFjayIgZD0iTTE4NTIuMTIsLTE1Mi40NEMxODM5LjM4LC0xNDEuNDMgMTgyMC4wMiwtMTI0LjY5IDE4MDUuMjcsLTExMS45NSIvPiYjeGE7PHBvbHlnb24gZmlsbD0iYmxhY2siIHN0cm9rZT0iYmxhY2siIHBvaW50cz0iMTgwNy40OCwtMTA5LjIzIDE3OTcuNjIsLTEwNS4zNCAxODAyLjksLTExNC41MyAxODA3LjQ4LC0xMDkuMjMiLz4mI3hhOzwvZz4mI3hhOzwhLS0gRUJVWFRLTFggLS0+JiN4YTs8ZyBpZD0ibm9kZTU0IiBjbGFzcz0ibm9kZSI+JiN4YTs8dGl0bGU+RUJVWFRLTFg8L3RpdGxlPiYjeGE7PGVsbGlwc2UgZmlsbD0ibm9uZSIgc3Ryb2tlPSJibGFjayIgY3g9IjE4NjUuNSIgY3k9Ii05MyIgcng9IjE4IiByeT0iMTgiLz4mI3hhOzwvZz4mI3hhOzwhLS0gSUFKQUtUU1YmIzQ1OyZndDtFQlVYVEtMWCAtLT4mI3hhOzxnIGlkPSJlZGdlNTMiIGNsYXNzPSJlZGdlIj4mI3hhOzx0aXRsZT5JQUpBS1RTVi0mZ3Q7RUJVWFRLTFg8L3RpdGxlPiYjeGE7PHBhdGggZmlsbD0ibm9uZSIgc3Ryb2tlPSJibGFjayIgZD0iTTE4NjUuNSwtMTQ2LjY5QzE4NjUuNSwtMTM4Ljk4IDE4NjUuNSwtMTI5LjcxIDE4NjUuNSwtMTIxLjExIi8+JiN4YTs8cG9seWdvbiBmaWxsPSJibGFjayIgc3Ryb2tlPSJibGFjayIgcG9pbnRzPSIxODY5LC0xMjEuMSAxODY1LjUsLTExMS4xIDE4NjIsLTEyMS4xIDE4NjksLTEyMS4xIi8+JiN4YTs8L2c+JiN4YTs8IS0tIFZOQ1RXR09BIC0tPiYjeGE7PGcgaWQ9Im5vZGU1NyIgY2xhc3M9Im5vZGUiPiYjeGE7PHRpdGxlPlZOQ1RXR09BPC90aXRsZT4mI3hhOzxlbGxpcHNlIGZpbGw9Im5vbmUiIHN0cm9rZT0iYmxhY2siIGN4PSIxOTczLjUiIGN5PSItOTMiIHJ4PSIxOCIgcnk9IjE4Ii8+JiN4YTs8L2c+JiN4YTs8IS0tIElBSkFLVFNWJiM0NTsmZ3Q7Vk5DVFdHT0EgLS0+JiN4YTs8ZyBpZD0iZWRnZTU2IiBjbGFzcz0iZWRnZSI+JiN4YTs8dGl0bGU+SUFKQUtUU1YtJmd0O1ZOQ1RXR09BPC90aXRsZT4mI3hhOzxwYXRoIGZpbGw9Im5vbmUiIHN0cm9rZT0iYmxhY2siIGQ9Ik0xODgwLjUyLC0xNTQuMjZDMTg5OC41NywtMTQyLjU2IDE5MjkuMDcsLTEyMi43OSAxOTUwLjE5LC0xMDkuMSIvPiYjeGE7PHBvbHlnb24gZmlsbD0iYmxhY2siIHN0cm9rZT0iYmxhY2siIHBvaW50cz0iMTk1Mi4xMiwtMTEyLjAyIDE5NTguNjEsLTEwMy42NSAxOTQ4LjMxLC0xMDYuMTUgMTk1Mi4xMiwtMTEyLjAyIi8+JiN4YTs8L2c+JiN4YTs8IS0tIExWTkhUTURCIC0tPiYjeGE7PGcgaWQ9Im5vZGU2MSIgY2xhc3M9Im5vZGUiPiYjeGE7PHRpdGxlPkxWTkhUTURCPC90aXRsZT4mI3hhOzxlbGxpcHNlIGZpbGw9Im5vbmUiIHN0cm9rZT0iYmxhY2siIGN4PSIyMTA4LjUiIGN5PSItOTMiIHJ4PSIxOCIgcnk9IjE4Ii8+JiN4YTs8L2c+JiN4YTs8IS0tIElBSkFLVFNWJiM0NTsmZ3Q7TFZOSFRNREIgLS0+JiN4YTs8ZyBpZD0iZWRnZTYwIiBjbGFzcz0iZWRnZSI+JiN4YTs8dGl0bGU+SUFKQUtUU1YtJmd0O0xWTkhUTURCPC90aXRsZT4mI3hhOzxwYXRoIGZpbGw9Im5vbmUiIHN0cm9rZT0iYmxhY2siIGQ9Ik0xODgyLjU5LC0xNTkuMDdDMTkyNC4yNCwtMTQ3LjA4IDIwMzEuMjgsLTExNi4yNCAyMDgxLjYsLTEwMS43NSIvPiYjeGE7PHBvbHlnb24gZmlsbD0iYmxhY2siIHN0cm9rZT0iYmxhY2siIHBvaW50cz0iMjA4Mi43OSwtMTA1LjA0IDIwOTEuNDMsLTk4LjkxIDIwODAuODUsLTk4LjMyIDIwODIuNzksLTEwNS4wNCIvPiYjeGE7PC9nPiYjeGE7PCEtLSBDR0pDRkRaViAtLT4mI3hhOzxnIGlkPSJub2RlNTIiIGNsYXNzPSJub2RlIj4mI3hhOzx0aXRsZT5DR0pDRkRaVjwvdGl0bGU+JiN4YTs8ZWxsaXBzZSBmaWxsPSJub25lIiBzdHJva2U9ImJsYWNrIiBjeD0iMTcyOS41IiBjeT0iLTE5LjUiIHJ4PSIxOS41IiByeT0iMTkuNSIvPiYjeGE7PHRleHQgdGV4dC1hbmNob3I9Im1pZGRsZSIgeD0iMTcyOS41IiB5PSItMTUuOCIgZm9udC1mYW1pbHk9IlRpbWVzLHNlcmlmIiBmb250LXNpemU9IjE0LjAwIj4xNDwvdGV4dD4mI3hhOzwvZz4mI3hhOzwhLS0gVk9WWElVUEMmIzQ1OyZndDtDR0pDRkRaViAtLT4mI3hhOzxnIGlkPSJlZGdlNTEiIGNsYXNzPSJlZGdlIj4mI3hhOzx0aXRsZT5WT1ZYSVVQQy0mZ3Q7Q0dKQ0ZEWlY8L3RpdGxlPiYjeGE7PHBhdGggZmlsbD0ibm9uZSIgc3Ryb2tlPSJibGFjayIgZD0iTTE3NzMuODksLTc4LjIxQzE3NjYuMzgsLTY4LjQ1IDE3NTYuMTIsLTU1LjExIDE3NDcuMzYsLTQzLjcyIi8+JiN4YTs8cG9seWdvbiBmaWxsPSJibGFjayIgc3Ryb2tlPSJibGFjayIgcG9pbnRzPSIxNzQ5Ljg5LC00MS4yNyAxNzQxLjAyLC0zNS40OCAxNzQ0LjM0LC00NS41NCAxNzQ5Ljg5LC00MS4yNyIvPiYjeGE7PC9nPiYjeGE7PCEtLSBFV1pOR1RXTiAtLT4mI3hhOzxnIGlkPSJub2RlNTMiIGNsYXNzPSJub2RlIj4mI3hhOzx0aXRsZT5FV1pOR1RXTjwvdGl0bGU+JiN4YTs8ZWxsaXBzZSBmaWxsPSJub25lIiBzdHJva2U9ImJsYWNrIiBjeD0iMTc4NC41IiBjeT0iLTE5LjUiIHJ4PSIxOCIgcnk9IjE4Ii8+JiN4YTs8dGV4dCB0ZXh0LWFuY2hvcj0ibWlkZGxlIiB4PSIxNzg0LjUiIHk9Ii0xNS44IiBmb250LWZhbWlseT0iVGltZXMsc2VyaWYiIGZvbnQtc2l6ZT0iMTQuMDAiPjE8L3RleHQ+JiN4YTs8L2c+JiN4YTs8IS0tIFZPVlhJVVBDJiM0NTsmZ3Q7RVdaTkdUV04gLS0+JiN4YTs8ZyBpZD0iZWRnZTUyIiBjbGFzcz0iZWRnZSI+JiN4YTs8dGl0bGU+Vk9WWElVUEMtJmd0O0VXWk5HVFdOPC90aXRsZT4mI3hhOzxwYXRoIGZpbGw9Im5vbmUiIHN0cm9rZT0iYmxhY2siIGQ9Ik0xNzg0LjUsLTc0LjY5QzE3ODQuNSwtNjYuNjEgMTc4NC41LC01Ni44IDE3ODQuNSwtNDcuNzYiLz4mI3hhOzxwb2x5Z29uIGZpbGw9ImJsYWNrIiBzdHJva2U9ImJsYWNrIiBwb2ludHM9IjE3ODgsLTQ3LjY1IDE3ODQuNSwtMzcuNjUgMTc4MSwtNDcuNjUgMTc4OCwtNDcuNjUiLz4mI3hhOzwvZz4mI3hhOzwhLS0gT0ZDVlFVUFkgLS0+JiN4YTs8ZyBpZD0ibm9kZTU1IiBjbGFzcz0ibm9kZSI+JiN4YTs8dGl0bGU+T0ZDVlFVUFk8L3RpdGxlPiYjeGE7PGVsbGlwc2UgZmlsbD0ibm9uZSIgc3Ryb2tlPSJibGFjayIgY3g9IjE4MzguNSIgY3k9Ii0xOS41IiByeD0iMTgiIHJ5PSIxOCIvPiYjeGE7PHRleHQgdGV4dC1hbmNob3I9Im1pZGRsZSIgeD0iMTgzOC41IiB5PSItMTUuOCIgZm9udC1mYW1pbHk9IlRpbWVzLHNlcmlmIiBmb250LXNpemU9IjE0LjAwIj4yPC90ZXh0PiYjeGE7PC9nPiYjeGE7PCEtLSBFQlVYVEtMWCYjNDU7Jmd0O09GQ1ZRVVBZIC0tPiYjeGE7PGcgaWQ9ImVkZ2U1NCIgY2xhc3M9ImVkZ2UiPiYjeGE7PHRpdGxlPkVCVVhUS0xYLSZndDtPRkNWUVVQWTwvdGl0bGU+JiN4YTs8cGF0aCBmaWxsPSJub25lIiBzdHJva2U9ImJsYWNrIiBkPSJNMTg1OS4zNywtNzUuNzdDMTg1Ni4wNiwtNjcgMTg1MS44OSwtNTUuOTYgMTg0OC4xNSwtNDYuMDUiLz4mI3hhOzxwb2x5Z29uIGZpbGw9ImJsYWNrIiBzdHJva2U9ImJsYWNrIiBwb2ludHM9IjE4NTEuNDEsLTQ0Ljc4IDE4NDQuNiwtMzYuNjYgMTg0NC44NiwtNDcuMjUgMTg1MS40MSwtNDQuNzgiLz4mI3hhOzwvZz4mI3hhOzwhLS0gSU5JWUFHRU4gLS0+JiN4YTs8ZyBpZD0ibm9kZTU2IiBjbGFzcz0ibm9kZSI+JiN4YTs8dGl0bGU+SU5JWUFHRU48L3RpdGxlPiYjeGE7PGVsbGlwc2UgZmlsbD0ibm9uZSIgc3Ryb2tlPSJibGFjayIgY3g9IjE4OTIuNSIgY3k9Ii0xOS41IiByeD0iMTgiIHJ5PSIxOCIvPiYjeGE7PHRleHQgdGV4dC1hbmNob3I9Im1pZGRsZSIgeD0iMTg5Mi41IiB5PSItMTUuOCIgZm9udC1mYW1pbHk9IlRpbWVzLHNlcmlmIiBmb250LXNpemU9IjE0LjAwIj4yPC90ZXh0PiYjeGE7PC9nPiYjeGE7PCEtLSBFQlVYVEtMWCYjNDU7Jmd0O0lOSVlBR0VOIC0tPiYjeGE7PGcgaWQ9ImVkZ2U1NSIgY2xhc3M9ImVkZ2UiPiYjeGE7PHRpdGxlPkVCVVhUS0xYLSZndDtJTklZQUdFTjwvdGl0bGU+JiN4YTs8cGF0aCBmaWxsPSJub25lIiBzdHJva2U9ImJsYWNrIiBkPSJNMTg3MS42MiwtNzUuNzdDMTg3NC45NCwtNjcgMTg3OS4xMSwtNTUuOTYgMTg4Mi44NSwtNDYuMDUiLz4mI3hhOzxwb2x5Z29uIGZpbGw9ImJsYWNrIiBzdHJva2U9ImJsYWNrIiBwb2ludHM9IjE4ODYuMTQsLTQ3LjI1IDE4ODYuNCwtMzYuNjYgMTg3OS41OSwtNDQuNzggMTg4Ni4xNCwtNDcuMjUiLz4mI3hhOzwvZz4mI3hhOzwhLS0gRU9XSklPUFIgLS0+JiN4YTs8ZyBpZD0ibm9kZTU4IiBjbGFzcz0ibm9kZSI+JiN4YTs8dGl0bGU+RU9XSklPUFI8L3RpdGxlPiYjeGE7PGVsbGlwc2UgZmlsbD0ibm9uZSIgc3Ryb2tlPSJibGFjayIgY3g9IjE5NDYuNSIgY3k9Ii0xOS41IiByeD0iMTgiIHJ5PSIxOCIvPiYjeGE7PHRleHQgdGV4dC1hbmNob3I9Im1pZGRsZSIgeD0iMTk0Ni41IiB5PSItMTUuOCIgZm9udC1mYW1pbHk9IlRpbWVzLHNlcmlmIiBmb250LXNpemU9IjE0LjAwIj4xPC90ZXh0PiYjeGE7PC9nPiYjeGE7PCEtLSBWTkNUV0dPQSYjNDU7Jmd0O0VPV0pJT1BSIC0tPiYjeGE7PGcgaWQ9ImVkZ2U1NyIgY2xhc3M9ImVkZ2UiPiYjeGE7PHRpdGxlPlZOQ1RXR09BLSZndDtFT1dKSU9QUjwvdGl0bGU+JiN4YTs8cGF0aCBmaWxsPSJub25lIiBzdHJva2U9ImJsYWNrIiBkPSJNMTk2Ny4zNywtNzUuNzdDMTk2NC4wNiwtNjcgMTk1OS44OSwtNTUuOTYgMTk1Ni4xNSwtNDYuMDUiLz4mI3hhOzxwb2x5Z29uIGZpbGw9ImJsYWNrIiBzdHJva2U9ImJsYWNrIiBwb2ludHM9IjE5NTkuNDEsLTQ0Ljc4IDE5NTIuNiwtMzYuNjYgMTk1Mi44NiwtNDcuMjUgMTk1OS40MSwtNDQuNzgiLz4mI3hhOzwvZz4mI3hhOzwhLS0gWVNNWVNZUEsgLS0+JiN4YTs8ZyBpZD0ibm9kZTU5IiBjbGFzcz0ibm9kZSI+JiN4YTs8dGl0bGU+WVNNWVNZUEs8L3RpdGxlPiYjeGE7PGVsbGlwc2UgZmlsbD0ibm9uZSIgc3Ryb2tlPSJibGFjayIgY3g9IjIwMDAuNSIgY3k9Ii0xOS41IiByeD0iMTgiIHJ5PSIxOCIvPiYjeGE7PHRleHQgdGV4dC1hbmNob3I9Im1pZGRsZSIgeD0iMjAwMC41IiB5PSItMTUuOCIgZm9udC1mYW1pbHk9IlRpbWVzLHNlcmlmIiBmb250LXNpemU9IjE0LjAwIj41PC90ZXh0PiYjeGE7PC9nPiYjeGE7PCEtLSBWTkNUV0dPQSYjNDU7Jmd0O1lTTVlTWVBLIC0tPiYjeGE7PGcgaWQ9ImVkZ2U1OCIgY2xhc3M9ImVkZ2UiPiYjeGE7PHRpdGxlPlZOQ1RXR09BLSZndDtZU01ZU1lQSzwvdGl0bGU+JiN4YTs8cGF0aCBmaWxsPSJub25lIiBzdHJva2U9ImJsYWNrIiBkPSJNMTk3OS42MiwtNzUuNzdDMTk4Mi45NCwtNjcgMTk4Ny4xMSwtNTUuOTYgMTk5MC44NSwtNDYuMDUiLz4mI3hhOzxwb2x5Z29uIGZpbGw9ImJsYWNrIiBzdHJva2U9ImJsYWNrIiBwb2ludHM9IjE5OTQuMTQsLTQ3LjI1IDE5OTQuNCwtMzYuNjYgMTk4Ny41OSwtNDQuNzggMTk5NC4xNCwtNDcuMjUiLz4mI3hhOzwvZz4mI3hhOzwhLS0gRkFESUZKQVMgLS0+JiN4YTs8ZyBpZD0ibm9kZTYwIiBjbGFzcz0ibm9kZSI+JiN4YTs8dGl0bGU+RkFESUZKQVM8L3RpdGxlPiYjeGE7PGVsbGlwc2UgZmlsbD0ibm9uZSIgc3Ryb2tlPSJibGFjayIgY3g9IjIwNTQuNSIgY3k9Ii0xOS41IiByeD0iMTgiIHJ5PSIxOCIvPiYjeGE7PHRleHQgdGV4dC1hbmNob3I9Im1pZGRsZSIgeD0iMjA1NC41IiB5PSItMTUuOCIgZm9udC1mYW1pbHk9IlRpbWVzLHNlcmlmIiBmb250LXNpemU9IjE0LjAwIj43PC90ZXh0PiYjeGE7PC9nPiYjeGE7PCEtLSBWTkNUV0dPQSYjNDU7Jmd0O0ZBRElGSkFTIC0tPiYjeGE7PGcgaWQ9ImVkZ2U1OSIgY2xhc3M9ImVkZ2UiPiYjeGE7PHRpdGxlPlZOQ1RXR09BLSZndDtGQURJRkpBUzwvdGl0bGU+JiN4YTs8cGF0aCBmaWxsPSJub25lIiBzdHJva2U9ImJsYWNrIiBkPSJNMTk4Ni41MSwtODAuNTFDMTk5OS4xOSwtNjkuMzIgMjAxOC42NywtNTIuMTIgMjAzMy41NCwtMzkiLz4mI3hhOzxwb2x5Z29uIGZpbGw9ImJsYWNrIiBzdHJva2U9ImJsYWNrIiBwb2ludHM9IjIwMzYuMDcsLTQxLjQ0IDIwNDEuMjUsLTMyLjE5IDIwMzEuNDMsLTM2LjE5IDIwMzYuMDcsLTQxLjQ0Ii8+JiN4YTs8L2c+JiN4YTs8IS0tIEpMUk9HUVNFIC0tPiYjeGE7PGcgaWQ9Im5vZGU2MiIgY2xhc3M9Im5vZGUiPiYjeGE7PHRpdGxlPkpMUk9HUVNFPC90aXRsZT4mI3hhOzxlbGxpcHNlIGZpbGw9Im5vbmUiIHN0cm9rZT0iYmxhY2siIGN4PSIyMTA4LjUiIGN5PSItMTkuNSIgcng9IjE4IiByeT0iMTgiLz4mI3hhOzx0ZXh0IHRleHQtYW5jaG9yPSJtaWRkbGUiIHg9IjIxMDguNSIgeT0iLTE1LjgiIGZvbnQtZmFtaWx5PSJUaW1lcyxzZXJpZiIgZm9udC1zaXplPSIxNC4wMCI+MDwvdGV4dD4mI3hhOzwvZz4mI3hhOzwhLS0gTFZOSFRNREImIzQ1OyZndDtKTFJPR1FTRSAtLT4mI3hhOzxnIGlkPSJlZGdlNjEiIGNsYXNzPSJlZGdlIj4mI3hhOzx0aXRsZT5MVk5IVE1EQi0mZ3Q7SkxST0dRU0U8L3RpdGxlPiYjeGE7PHBhdGggZmlsbD0ibm9uZSIgc3Ryb2tlPSJibGFjayIgZD0iTTIxMDguNSwtNzQuNjlDMjEwOC41LC02Ni42MSAyMTA4LjUsLTU2LjggMjEwOC41LC00Ny43NiIvPiYjeGE7PHBvbHlnb24gZmlsbD0iYmxhY2siIHN0cm9rZT0iYmxhY2siIHBvaW50cz0iMjExMiwtNDcuNjUgMjEwOC41LC0zNy42NSAyMTA1LC00Ny42NSAyMTEyLC00Ny42NSIvPiYjeGE7PC9nPiYjeGE7PCEtLSBSWVdTQUpLUiAtLT4mI3hhOzxnIGlkPSJub2RlNjMiIGNsYXNzPSJub2RlIj4mI3hhOzx0aXRsZT5SWVdTQUpLUjwvdGl0bGU+JiN4YTs8ZWxsaXBzZSBmaWxsPSJub25lIiBzdHJva2U9ImJsYWNrIiBjeD0iMjE2Mi41IiBjeT0iLTE5LjUiIHJ4PSIxOCIgcnk9IjE4Ii8+JiN4YTs8dGV4dCB0ZXh0LWFuY2hvcj0ibWlkZGxlIiB4PSIyMTYyLjUiIHk9Ii0xNS44IiBmb250LWZhbWlseT0iVGltZXMsc2VyaWYiIGZvbnQtc2l6ZT0iMTQuMDAiPjc8L3RleHQ+JiN4YTs8L2c+JiN4YTs8IS0tIExWTkhUTURCJiM0NTsmZ3Q7UllXU0FKS1IgLS0+JiN4YTs8ZyBpZD0iZWRnZTYyIiBjbGFzcz0iZWRnZSI+JiN4YTs8dGl0bGU+TFZOSFRNREItJmd0O1JZV1NBSktSPC90aXRsZT4mI3hhOzxwYXRoIGZpbGw9Im5vbmUiIHN0cm9rZT0iYmxhY2siIGQ9Ik0yMTE4LjkxLC03OC4yMUMyMTI2LjYsLTY4LjAyIDIxMzcuMjMsLTUzLjk1IDIxNDYuMDcsLTQyLjI1Ii8+JiN4YTs8cG9seWdvbiBmaWxsPSJibGFjayIgc3Ryb2tlPSJibGFjayIgcG9pbnRzPSIyMTQ4Ljg4LC00NC4zMyAyMTUyLjEyLC0zNC4yNCAyMTQzLjMsLTQwLjExIDIxNDguODgsLTQ0LjMzIi8+JiN4YTs8L2c+JiN4YTs8IS0tIE1CSk1VV1hBIC0tPiYjeGE7PGcgaWQ9Im5vZGU2NSIgY2xhc3M9Im5vZGUiPiYjeGE7PHRpdGxlPk1CSk1VV1hBPC90aXRsZT4mI3hhOzxlbGxpcHNlIGZpbGw9Im5vbmUiIHN0cm9rZT0iYmxhY2siIGN4PSIyMzI0LjUiIGN5PSItOTMiIHJ4PSIxOCIgcnk9IjE4Ii8+JiN4YTs8L2c+JiN4YTs8IS0tIE9BWE1BRlFBJiM0NTsmZ3Q7TUJKTVVXWEEgLS0+JiN4YTs8ZyBpZD0iZWRnZTY0IiBjbGFzcz0iZWRnZSI+JiN4YTs8dGl0bGU+T0FYTUFGUUEtJmd0O01CSk1VV1hBPC90aXRsZT4mI3hhOzxwYXRoIGZpbGw9Im5vbmUiIHN0cm9rZT0iYmxhY2siIGQ9Ik0yMzY3LjgzLC0xNTAuMTdDMjM2MC4yOSwtMTQwLjM5IDIzNTAuMDIsLTEyNy4wOCAyMzQxLjM3LC0xMTUuODciLz4mI3hhOzxwb2x5Z29uIGZpbGw9ImJsYWNrIiBzdHJva2U9ImJsYWNrIiBwb2ludHM9IjIzNDQuMDIsLTExMy41OCAyMzM1LjE0LC0xMDcuOCAyMzM4LjQ4LC0xMTcuODUgMjM0NC4wMiwtMTEzLjU4Ii8+JiN4YTs8L2c+JiN4YTs8IS0tIElJQ0VPV0ZaIC0tPiYjeGE7PGcgaWQ9Im5vZGU3MCIgY2xhc3M9Im5vZGUiPiYjeGE7PHRpdGxlPklJQ0VPV0ZaPC90aXRsZT4mI3hhOzxlbGxpcHNlIGZpbGw9Im5vbmUiIHN0cm9rZT0iYmxhY2siIGN4PSIyNDMzLjUiIGN5PSItOTMiIHJ4PSIxOCIgcnk9IjE4Ii8+JiN4YTs8L2c+JiN4YTs8IS0tIE9BWE1BRlFBJiM0NTsmZ3Q7SUlDRU9XRlogLS0+JiN4YTs8ZyBpZD0iZWRnZTY5IiBjbGFzcz0iZWRnZSI+JiN4YTs8dGl0bGU+T0FYTUFGUUEtJmd0O0lJQ0VPV0ZaPC90aXRsZT4mI3hhOzxwYXRoIGZpbGw9Im5vbmUiIHN0cm9rZT0iYmxhY2siIGQ9Ik0yMzg5LjM2LC0xNTAuMTdDMjM5Ny4wNSwtMTQwLjM5IDI0MDcuNTEsLTEyNy4wOCAyNDE2LjMxLC0xMTUuODciLz4mI3hhOzxwb2x5Z29uIGZpbGw9ImJsYWNrIiBzdHJva2U9ImJsYWNrIiBwb2ludHM9IjI0MTkuMjMsLTExNy44MiAyNDIyLjY1LC0xMDcuOCAyNDEzLjcyLC0xMTMuNSAyNDE5LjIzLC0xMTcuODIiLz4mI3hhOzwvZz4mI3hhOzwhLS0gVlZUT1lURkogLS0+JiN4YTs8ZyBpZD0ibm9kZTczIiBjbGFzcz0ibm9kZSI+JiN4YTs8dGl0bGU+VlZUT1lURko8L3RpdGxlPiYjeGE7PGVsbGlwc2UgZmlsbD0ibm9uZSIgc3Ryb2tlPSJibGFjayIgY3g9IjI1NzIuNSIgY3k9Ii05MyIgcng9IjE4IiByeT0iMTgiLz4mI3hhOzwvZz4mI3hhOzwhLS0gT0FYTUFGUUEmIzQ1OyZndDtWVlRPWVRGSiAtLT4mI3hhOzxnIGlkPSJlZGdlNzIiIGNsYXNzPSJlZGdlIj4mI3hhOzx0aXRsZT5PQVhNQUZRQS0mZ3Q7VlZUT1lURko8L3RpdGxlPiYjeGE7PHBhdGggZmlsbD0ibm9uZSIgc3Ryb2tlPSJibGFjayIgZD0iTTIzOTUuMzgsLTE1Ny45MUMyNDI5LjI4LC0xNDUuNjcgMjUwNS44OSwtMTE4LjAzIDI1NDYuMzQsLTEwMy40MyIvPiYjeGE7PHBvbHlnb24gZmlsbD0iYmxhY2siIHN0cm9rZT0iYmxhY2siIHBvaW50cz0iMjU0Ny41OCwtMTA2LjcxIDI1NTUuOCwtMTAwLjAyIDI1NDUuMiwtMTAwLjEyIDI1NDcuNTgsLTEwNi43MSIvPiYjeGE7PC9nPiYjeGE7PCEtLSBHWUFYRE1NSCAtLT4mI3hhOzxnIGlkPSJub2RlNjYiIGNsYXNzPSJub2RlIj4mI3hhOzx0aXRsZT5HWUFYRE1NSDwvdGl0bGU+JiN4YTs8ZWxsaXBzZSBmaWxsPSJub25lIiBzdHJva2U9ImJsYWNrIiBjeD0iMjIxNi41IiBjeT0iLTE5LjUiIHJ4PSIxOCIgcnk9IjE4Ii8+JiN4YTs8dGV4dCB0ZXh0LWFuY2hvcj0ibWlkZGxlIiB4PSIyMjE2LjUiIHk9Ii0xNS44IiBmb250LWZhbWlseT0iVGltZXMsc2VyaWYiIGZvbnQtc2l6ZT0iMTQuMDAiPjg8L3RleHQ+JiN4YTs8L2c+JiN4YTs8IS0tIE1CSk1VV1hBJiM0NTsmZ3Q7R1lBWERNTUggLS0+JiN4YTs8ZyBpZD0iZWRnZTY1IiBjbGFzcz0iZWRnZSI+JiN4YTs8dGl0bGU+TUJKTVVXWEEtJmd0O0dZQVhETU1IPC90aXRsZT4mI3hhOzxwYXRoIGZpbGw9Im5vbmUiIHN0cm9rZT0iYmxhY2siIGQ9Ik0yMzA5LjgsLTgyLjUyQzIyOTMuNTMsLTcxLjk4IDIyNjYuNTQsLTU0LjQyIDIyNDMuNSwtMzkgMjI0Mi4yMywtMzguMTUgMjI0MC45MywtMzcuMjcgMjIzOS42MiwtMzYuMzkiLz4mI3hhOzxwb2x5Z29uIGZpbGw9ImJsYWNrIiBzdHJva2U9ImJsYWNrIiBwb2ludHM9IjIyNDEuMjcsLTMzLjI3IDIyMzEuMDMsLTMwLjU0IDIyMzcuMzMsLTM5LjA2IDIyNDEuMjcsLTMzLjI3Ii8+JiN4YTs8L2c+JiN4YTs8IS0tIEFYWkJBTVJPIC0tPiYjeGE7PGcgaWQ9Im5vZGU2NyIgY2xhc3M9Im5vZGUiPiYjeGE7PHRpdGxlPkFYWkJBTVJPPC90aXRsZT4mI3hhOzxlbGxpcHNlIGZpbGw9Im5vbmUiIHN0cm9rZT0iYmxhY2siIGN4PSIyMjcwLjUiIGN5PSItMTkuNSIgcng9IjE4IiByeT0iMTgiLz4mI3hhOzx0ZXh0IHRleHQtYW5jaG9yPSJtaWRkbGUiIHg9IjIyNzAuNSIgeT0iLTE1LjgiIGZvbnQtZmFtaWx5PSJUaW1lcyxzZXJpZiIgZm9udC1zaXplPSIxNC4wMCI+NjwvdGV4dD4mI3hhOzwvZz4mI3hhOzwhLS0gTUJKTVVXWEEmIzQ1OyZndDtBWFpCQU1STyAtLT4mI3hhOzxnIGlkPSJlZGdlNjYiIGNsYXNzPSJlZGdlIj4mI3hhOzx0aXRsZT5NQkpNVVdYQS0mZ3Q7QVhaQkFNUk88L3RpdGxlPiYjeGE7PHBhdGggZmlsbD0ibm9uZSIgc3Ryb2tlPSJibGFjayIgZD0iTTIzMTQuMDksLTc4LjIxQzIzMDYuMzksLTY4LjAyIDIyOTUuNzYsLTUzLjk1IDIyODYuOTMsLTQyLjI1Ii8+JiN4YTs8cG9seWdvbiBmaWxsPSJibGFjayIgc3Ryb2tlPSJibGFjayIgcG9pbnRzPSIyMjg5LjcsLTQwLjExIDIyODAuODgsLTM0LjI0IDIyODQuMTEsLTQ0LjMzIDIyODkuNywtNDAuMTEiLz4mI3hhOzwvZz4mI3hhOzwhLS0gQktGQkhSS0YgLS0+JiN4YTs8ZyBpZD0ibm9kZTY4IiBjbGFzcz0ibm9kZSI+JiN4YTs8dGl0bGU+QktGQkhSS0Y8L3RpdGxlPiYjeGE7PGVsbGlwc2UgZmlsbD0ibm9uZSIgc3Ryb2tlPSJibGFjayIgY3g9IjIzMjQuNSIgY3k9Ii0xOS41IiByeD0iMTgiIHJ5PSIxOCIvPiYjeGE7PHRleHQgdGV4dC1hbmNob3I9Im1pZGRsZSIgeD0iMjMyNC41IiB5PSItMTUuOCIgZm9udC1mYW1pbHk9IlRpbWVzLHNlcmlmIiBmb250LXNpemU9IjE0LjAwIj41PC90ZXh0PiYjeGE7PC9nPiYjeGE7PCEtLSBNQkpNVVdYQSYjNDU7Jmd0O0JLRkJIUktGIC0tPiYjeGE7PGcgaWQ9ImVkZ2U2NyIgY2xhc3M9ImVkZ2UiPiYjeGE7PHRpdGxlPk1CSk1VV1hBLSZndDtCS0ZCSFJLRjwvdGl0bGU+JiN4YTs8cGF0aCBmaWxsPSJub25lIiBzdHJva2U9ImJsYWNrIiBkPSJNMjMyNC41LC03NC42OUMyMzI0LjUsLTY2LjYxIDIzMjQuNSwtNTYuOCAyMzI0LjUsLTQ3Ljc2Ii8+JiN4YTs8cG9seWdvbiBmaWxsPSJibGFjayIgc3Ryb2tlPSJibGFjayIgcG9pbnRzPSIyMzI4LC00Ny42NSAyMzI0LjUsLTM3LjY1IDIzMjEsLTQ3LjY1IDIzMjgsLTQ3LjY1Ii8+JiN4YTs8L2c+JiN4YTs8IS0tIFJaQ1NDTEhEIC0tPiYjeGE7PGcgaWQ9Im5vZGU2OSIgY2xhc3M9Im5vZGUiPiYjeGE7PHRpdGxlPlJaQ1NDTEhEPC90aXRsZT4mI3hhOzxlbGxpcHNlIGZpbGw9Im5vbmUiIHN0cm9rZT0iYmxhY2siIGN4PSIyMzc4LjUiIGN5PSItMTkuNSIgcng9IjE4IiByeT0iMTgiLz4mI3hhOzx0ZXh0IHRleHQtYW5jaG9yPSJtaWRkbGUiIHg9IjIzNzguNSIgeT0iLTE1LjgiIGZvbnQtZmFtaWx5PSJUaW1lcyxzZXJpZiIgZm9udC1zaXplPSIxNC4wMCI+NjwvdGV4dD4mI3hhOzwvZz4mI3hhOzwhLS0gTUJKTVVXWEEmIzQ1OyZndDtSWkNTQ0xIRCAtLT4mI3hhOzxnIGlkPSJlZGdlNjgiIGNsYXNzPSJlZGdlIj4mI3hhOzx0aXRsZT5NQkpNVVdYQS0mZ3Q7UlpDU0NMSEQ8L3RpdGxlPiYjeGE7PHBhdGggZmlsbD0ibm9uZSIgc3Ryb2tlPSJibGFjayIgZD0iTTIzMzQuOTEsLTc4LjIxQzIzNDIuNiwtNjguMDIgMjM1My4yMywtNTMuOTUgMjM2Mi4wNywtNDIuMjUiLz4mI3hhOzxwb2x5Z29uIGZpbGw9ImJsYWNrIiBzdHJva2U9ImJsYWNrIiBwb2ludHM9IjIzNjQuODgsLTQ0LjMzIDIzNjguMTIsLTM0LjI0IDIzNTkuMywtNDAuMTEgMjM2NC44OCwtNDQuMzMiLz4mI3hhOzwvZz4mI3hhOzwhLS0gT1VDSlZOWUggLS0+JiN4YTs8ZyBpZD0ibm9kZTcxIiBjbGFzcz0ibm9kZSI+JiN4YTs8dGl0bGU+T1VDSlZOWUg8L3RpdGxlPiYjeGE7PGVsbGlwc2UgZmlsbD0ibm9uZSIgc3Ryb2tlPSJibGFjayIgY3g9IjI0MzMuNSIgY3k9Ii0xOS41IiByeD0iMTkuNSIgcnk9IjE5LjUiLz4mI3hhOzx0ZXh0IHRleHQtYW5jaG9yPSJtaWRkbGUiIHg9IjI0MzMuNSIgeT0iLTE1LjgiIGZvbnQtZmFtaWx5PSJUaW1lcyxzZXJpZiIgZm9udC1zaXplPSIxNC4wMCI+MTQ8L3RleHQ+JiN4YTs8L2c+JiN4YTs8IS0tIElJQ0VPV0ZaJiM0NTsmZ3Q7T1VDSlZOWUggLS0+JiN4YTs8ZyBpZD0iZWRnZTcwIiBjbGFzcz0iZWRnZSI+JiN4YTs8dGl0bGU+SUlDRU9XRlotJmd0O09VQ0pWTllIPC90aXRsZT4mI3hhOzxwYXRoIGZpbGw9Im5vbmUiIHN0cm9rZT0iYmxhY2siIGQ9Ik0yNDMzLjUsLTc0LjY5QzI0MzMuNSwtNjcuMDUgMjQzMy41LC01Ny44NiAyNDMzLjUsLTQ5LjI0Ii8+JiN4YTs8cG9seWdvbiBmaWxsPSJibGFjayIgc3Ryb2tlPSJibGFjayIgcG9pbnRzPSIyNDM3LC00OS4xNSAyNDMzLjUsLTM5LjE1IDI0MzAsLTQ5LjE1IDI0MzcsLTQ5LjE1Ii8+JiN4YTs8L2c+JiN4YTs8IS0tIEJKTUFaQklRIC0tPiYjeGE7PGcgaWQ9Im5vZGU3MiIgY2xhc3M9Im5vZGUiPiYjeGE7PHRpdGxlPkJKTUFaQklRPC90aXRsZT4mI3hhOzxlbGxpcHNlIGZpbGw9Im5vbmUiIHN0cm9rZT0iYmxhY2siIGN4PSIyNDkwLjUiIGN5PSItMTkuNSIgcng9IjE5LjUiIHJ5PSIxOS41Ii8+JiN4YTs8dGV4dCB0ZXh0LWFuY2hvcj0ibWlkZGxlIiB4PSIyNDkwLjUiIHk9Ii0xNS44IiBmb250LWZhbWlseT0iVGltZXMsc2VyaWYiIGZvbnQtc2l6ZT0iMTQuMDAiPjEyPC90ZXh0PiYjeGE7PC9nPiYjeGE7PCEtLSBJSUNFT1dGWiYjNDU7Jmd0O0JKTUFaQklRIC0tPiYjeGE7PGcgaWQ9ImVkZ2U3MSIgY2xhc3M9ImVkZ2UiPiYjeGE7PHRpdGxlPklJQ0VPV0ZaLSZndDtCSk1BWkJJUTwvdGl0bGU+JiN4YTs8cGF0aCBmaWxsPSJub25lIiBzdHJva2U9ImJsYWNrIiBkPSJNMjQ0NC40OSwtNzguMjFDMjQ1Mi40LC02OC4yOCAyNDYzLjI2LC01NC42NyAyNDcyLjQ0LC00My4xNiIvPiYjeGE7PHBvbHlnb24gZmlsbD0iYmxhY2siIHN0cm9rZT0iYmxhY2siIHBvaW50cz0iMjQ3NS4yNiwtNDUuMjMgMjQ3OC43NiwtMzUuMjMgMjQ2OS43OSwtNDAuODYgMjQ3NS4yNiwtNDUuMjMiLz4mI3hhOzwvZz4mI3hhOzwhLS0gWUFLRFhJSEcgLS0+JiN4YTs8ZyBpZD0ibm9kZTc0IiBjbGFzcz0ibm9kZSI+JiN4YTs8dGl0bGU+WUFLRFhJSEc8L3RpdGxlPiYjeGE7PGVsbGlwc2UgZmlsbD0ibm9uZSIgc3Ryb2tlPSJibGFjayIgY3g9IjI1NDUuNSIgY3k9Ii0xOS41IiByeD0iMTgiIHJ5PSIxOCIvPiYjeGE7PHRleHQgdGV4dC1hbmNob3I9Im1pZGRsZSIgeD0iMjU0NS41IiB5PSItMTUuOCIgZm9udC1mYW1pbHk9IlRpbWVzLHNlcmlmIiBmb250LXNpemU9IjE0LjAwIj4yPC90ZXh0PiYjeGE7PC9nPiYjeGE7PCEtLSBWVlRPWVRGSiYjNDU7Jmd0O1lBS0RYSUhHIC0tPiYjeGE7PGcgaWQ9ImVkZ2U3MyIgY2xhc3M9ImVkZ2UiPiYjeGE7PHRpdGxlPlZWVE9ZVEZKLSZndDtZQUtEWElIRzwvdGl0bGU+JiN4YTs8cGF0aCBmaWxsPSJub25lIiBzdHJva2U9ImJsYWNrIiBkPSJNMjU2Ni4zNywtNzUuNzdDMjU2My4wNiwtNjcgMjU1OC44OSwtNTUuOTYgMjU1NS4xNSwtNDYuMDUiLz4mI3hhOzxwb2x5Z29uIGZpbGw9ImJsYWNrIiBzdHJva2U9ImJsYWNrIiBwb2ludHM9IjI1NTguNDEsLTQ0Ljc4IDI1NTEuNiwtMzYuNjYgMjU1MS44NiwtNDcuMjUgMjU1OC40MSwtNDQuNzgiLz4mI3hhOzwvZz4mI3hhOzwhLS0gVUNOVUxYS1IgLS0+JiN4YTs8ZyBpZD0ibm9kZTc1IiBjbGFzcz0ibm9kZSI+JiN4YTs8dGl0bGU+VUNOVUxYS1I8L3RpdGxlPiYjeGE7PGVsbGlwc2UgZmlsbD0ibm9uZSIgc3Ryb2tlPSJibGFjayIgY3g9IjI1OTkuNSIgY3k9Ii0xOS41IiByeD0iMTgiIHJ5PSIxOCIvPiYjeGE7PHRleHQgdGV4dC1hbmNob3I9Im1pZGRsZSIgeD0iMjU5OS41IiB5PSItMTUuOCIgZm9udC1mYW1pbHk9IlRpbWVzLHNlcmlmIiBmb250LXNpemU9IjE0LjAwIj4zPC90ZXh0PiYjeGE7PC9nPiYjeGE7PCEtLSBWVlRPWVRGSiYjNDU7Jmd0O1VDTlVMWEtSIC0tPiYjeGE7PGcgaWQ9ImVkZ2U3NCIgY2xhc3M9ImVkZ2UiPiYjeGE7PHRpdGxlPlZWVE9ZVEZKLSZndDtVQ05VTFhLUjwvdGl0bGU+JiN4YTs8cGF0aCBmaWxsPSJub25lIiBzdHJva2U9ImJsYWNrIiBkPSJNMjU3OC42MiwtNzUuNzdDMjU4MS45NCwtNjcgMjU4Ni4xMSwtNTUuOTYgMjU4OS44NSwtNDYuMDUiLz4mI3hhOzxwb2x5Z29uIGZpbGw9ImJsYWNrIiBzdHJva2U9ImJsYWNrIiBwb2ludHM9IjI1OTMuMTQsLTQ3LjI1IDI1OTMuNCwtMzYuNjYgMjU4Ni41OSwtNDQuNzggMjU5My4xNCwtNDcuMjUiLz4mI3hhOzwvZz4mI3hhOzwhLS0gRlBVS0ZSRFMgLS0+JiN4YTs8ZyBpZD0ibm9kZTc2IiBjbGFzcz0ibm9kZSI+JiN4YTs8dGl0bGU+RlBVS0ZSRFM8L3RpdGxlPiYjeGE7PGVsbGlwc2UgZmlsbD0ibm9uZSIgc3Ryb2tlPSJibGFjayIgY3g9IjI2NTQuNSIgY3k9Ii0xOS41IiByeD0iMTkuNSIgcnk9IjE5LjUiLz4mI3hhOzx0ZXh0IHRleHQtYW5jaG9yPSJtaWRkbGUiIHg9IjI2NTQuNSIgeT0iLTE1LjgiIGZvbnQtZmFtaWx5PSJUaW1lcyxzZXJpZiIgZm9udC1zaXplPSIxNC4wMCI+MTQ8L3RleHQ+JiN4YTs8L2c+JiN4YTs8IS0tIFZWVE9ZVEZKJiM0NTsmZ3Q7RlBVS0ZSRFMgLS0+JiN4YTs8ZyBpZD0iZWRnZTc1IiBjbGFzcz0iZWRnZSI+JiN4YTs8dGl0bGU+VlZUT1lURkotJmd0O0ZQVUtGUkRTPC90aXRsZT4mI3hhOzxwYXRoIGZpbGw9Im5vbmUiIHN0cm9rZT0iYmxhY2siIGQ9Ik0yNTg1LjY3LC04MC41MUMyNTk4LjI4LC02OS41MiAyNjE3LjUzLC01Mi43MyAyNjMyLjQ3LC0zOS43MSIvPiYjeGE7PHBvbHlnb24gZmlsbD0iYmxhY2siIHN0cm9rZT0iYmxhY2siIHBvaW50cz0iMjYzNS4wMiwtNDIuMTMgMjY0MC4yNSwtMzIuOTIgMjYzMC40MiwtMzYuODUgMjYzNS4wMiwtNDIuMTMiLz4mI3hhOzwvZz4mI3hhOzwvZz4mI3hhOzwvc3ZnPg==;" vertex="1" parent="1">
          <mxGeometry x="-786" y="441" width="1584" height="198" as="geometry" />
        </mxCell>
        <mxCell id="Oz2E0d1gx8pRwYydok05-3" value="&lt;font size=&quot;1&quot;&gt;10&lt;/font&gt;" style="text;html=1;strokeColor=none;fillColor=none;align=center;verticalAlign=middle;whiteSpace=wrap;rounded=0;" vertex="1" parent="1">
          <mxGeometry x="-745" y="573" width="13" height="14" as="geometry" />
        </mxCell>
        <mxCell id="Oz2E0d1gx8pRwYydok05-4" value="&lt;font style=&quot;font-size: 9px&quot;&gt;6&lt;/font&gt;" style="text;html=1;strokeColor=none;fillColor=none;align=center;verticalAlign=middle;whiteSpace=wrap;rounded=0;" vertex="1" parent="1">
          <mxGeometry x="-696" y="573" width="13" height="14" as="geometry" />
        </mxCell>
        <mxCell id="Oz2E0d1gx8pRwYydok05-5" value="&lt;font style=&quot;font-size: 9px&quot;&gt;1&lt;/font&gt;" style="text;html=1;strokeColor=none;fillColor=none;align=center;verticalAlign=middle;whiteSpace=wrap;rounded=0;" vertex="1" parent="1">
          <mxGeometry x="-583" y="575" width="13" height="14" as="geometry" />
        </mxCell>
        <mxCell id="Oz2E0d1gx8pRwYydok05-6" value="&lt;font style=&quot;font-size: 9px&quot;&gt;2&lt;/font&gt;" style="text;html=1;strokeColor=none;fillColor=none;align=center;verticalAlign=middle;whiteSpace=wrap;rounded=0;" vertex="1" parent="1">
          <mxGeometry x="-502" y="573" width="13" height="14" as="geometry" />
        </mxCell>
        <mxCell id="Oz2E0d1gx8pRwYydok05-7" value="&lt;font style=&quot;font-size: 9px&quot;&gt;7&lt;/font&gt;" style="text;html=1;strokeColor=none;fillColor=none;align=center;verticalAlign=middle;whiteSpace=wrap;rounded=0;" vertex="1" parent="1">
          <mxGeometry x="-437" y="573" width="13" height="14" as="geometry" />
        </mxCell>
        <mxCell id="Oz2E0d1gx8pRwYydok05-8" value="&lt;font style=&quot;font-size: 9px&quot;&gt;2&lt;/font&gt;" style="text;html=1;strokeColor=none;fillColor=none;align=center;verticalAlign=middle;whiteSpace=wrap;rounded=0;" vertex="1" parent="1">
          <mxGeometry x="-292" y="573" width="13" height="14" as="geometry" />
        </mxCell>
        <mxCell id="Oz2E0d1gx8pRwYydok05-9" value="&lt;font style=&quot;font-size: 9px&quot;&gt;6&lt;/font&gt;" style="text;html=1;strokeColor=none;fillColor=none;align=center;verticalAlign=middle;whiteSpace=wrap;rounded=0;" vertex="1" parent="1">
          <mxGeometry x="-211" y="573" width="13" height="14" as="geometry" />
        </mxCell>
        <mxCell id="Oz2E0d1gx8pRwYydok05-10" value="&lt;font style=&quot;font-size: 9px&quot;&gt;7&lt;/font&gt;" style="text;html=1;strokeColor=none;fillColor=none;align=center;verticalAlign=middle;whiteSpace=wrap;rounded=0;" vertex="1" parent="1">
          <mxGeometry x="-502" y="533" width="13" height="14" as="geometry" />
        </mxCell>
        <mxCell id="Oz2E0d1gx8pRwYydok05-11" value="&lt;font style=&quot;font-size: 9px&quot;&gt;7&lt;/font&gt;" style="text;html=1;strokeColor=none;fillColor=none;align=center;verticalAlign=middle;whiteSpace=wrap;rounded=0;" vertex="1" parent="1">
          <mxGeometry x="-502" y="487" width="13" height="14" as="geometry" />
        </mxCell>
        <mxCell id="Oz2E0d1gx8pRwYydok05-12" value="&lt;font style=&quot;font-size: 9px&quot;&gt;7&lt;/font&gt;" style="text;html=1;strokeColor=none;fillColor=none;align=center;verticalAlign=middle;whiteSpace=wrap;rounded=0;" vertex="1" parent="1">
          <mxGeometry x="-275" y="446" width="13" height="14" as="geometry" />
        </mxCell>
        <mxCell id="Oz2E0d1gx8pRwYydok05-13" value="&lt;font style=&quot;font-size: 9px&quot;&gt;6&lt;/font&gt;" style="text;html=1;strokeColor=none;fillColor=none;align=center;verticalAlign=middle;whiteSpace=wrap;rounded=0;" vertex="1" parent="1">
          <mxGeometry x="-214" y="531" width="13" height="14" as="geometry" />
        </mxCell>
        <mxCell id="Oz2E0d1gx8pRwYydok05-15" value="&lt;font style=&quot;font-size: 9px&quot;&gt;2&lt;/font&gt;" style="text;html=1;strokeColor=none;fillColor=none;align=center;verticalAlign=middle;whiteSpace=wrap;rounded=0;" vertex="1" parent="1">
          <mxGeometry x="17" y="487" width="13" height="14" as="geometry" />
        </mxCell>
        <mxCell id="Oz2E0d1gx8pRwYydok05-16" value="&lt;font style=&quot;font-size: 9px&quot;&gt;4&lt;/font&gt;" style="text;html=1;strokeColor=none;fillColor=none;align=center;verticalAlign=middle;whiteSpace=wrap;rounded=0;" vertex="1" parent="1">
          <mxGeometry x="-115" y="573" width="13" height="14" as="geometry" />
        </mxCell>
        <mxCell id="Oz2E0d1gx8pRwYydok05-17" value="&lt;font style=&quot;font-size: 9px&quot;&gt;4&lt;/font&gt;" style="text;html=1;strokeColor=none;fillColor=none;align=center;verticalAlign=middle;whiteSpace=wrap;rounded=0;" vertex="1" parent="1">
          <mxGeometry x="-16" y="573" width="13" height="14" as="geometry" />
        </mxCell>
        <mxCell id="Oz2E0d1gx8pRwYydok05-18" value="&lt;font style=&quot;font-size: 9px&quot;&gt;13&lt;/font&gt;" style="text;html=1;strokeColor=none;fillColor=none;align=center;verticalAlign=middle;whiteSpace=wrap;rounded=0;" vertex="1" parent="1">
          <mxGeometry x="17" y="531" width="13" height="14" as="geometry" />
        </mxCell>
        <mxCell id="Oz2E0d1gx8pRwYydok05-19" value="&lt;font style=&quot;font-size: 9px&quot;&gt;13&lt;/font&gt;" style="text;html=1;strokeColor=none;fillColor=none;align=center;verticalAlign=middle;whiteSpace=wrap;rounded=0;" vertex="1" parent="1">
          <mxGeometry x="52" y="573" width="13" height="14" as="geometry" />
        </mxCell>
        <mxCell id="Oz2E0d1gx8pRwYydok05-20" value="&lt;font style=&quot;font-size: 9px&quot;&gt;1&lt;/font&gt;" style="text;html=1;strokeColor=none;fillColor=none;align=center;verticalAlign=middle;whiteSpace=wrap;rounded=0;" vertex="1" parent="1">
          <mxGeometry x="149" y="573" width="13" height="14" as="geometry" />
        </mxCell>
        <mxCell id="Oz2E0d1gx8pRwYydok05-21" value="&lt;font style=&quot;font-size: 9px&quot;&gt;1&lt;/font&gt;" style="text;html=1;strokeColor=none;fillColor=none;align=center;verticalAlign=middle;whiteSpace=wrap;rounded=0;" vertex="1" parent="1">
          <mxGeometry x="264" y="575" width="13" height="14" as="geometry" />
        </mxCell>
        <mxCell id="Oz2E0d1gx8pRwYydok05-22" value="&lt;font style=&quot;font-size: 9px&quot;&gt;2&lt;/font&gt;" style="text;html=1;strokeColor=none;fillColor=none;align=center;verticalAlign=middle;whiteSpace=wrap;rounded=0;" vertex="1" parent="1">
          <mxGeometry x="311" y="573" width="13" height="14" as="geometry" />
        </mxCell>
        <mxCell id="Oz2E0d1gx8pRwYydok05-23" value="&lt;font style=&quot;font-size: 9px&quot;&gt;1&lt;/font&gt;" style="text;html=1;strokeColor=none;fillColor=none;align=center;verticalAlign=middle;whiteSpace=wrap;rounded=0;" vertex="1" parent="1">
          <mxGeometry x="376" y="575" width="13" height="14" as="geometry" />
        </mxCell>
        <mxCell id="Oz2E0d1gx8pRwYydok05-24" value="&lt;font style=&quot;font-size: 9px&quot;&gt;0&lt;/font&gt;" style="text;html=1;strokeColor=none;fillColor=none;align=center;verticalAlign=middle;whiteSpace=wrap;rounded=0;" vertex="1" parent="1">
          <mxGeometry x="456" y="575" width="13" height="14" as="geometry" />
        </mxCell>
        <mxCell id="Oz2E0d1gx8pRwYydok05-25" value="&lt;font style=&quot;font-size: 9px&quot;&gt;5&lt;/font&gt;" style="text;html=1;strokeColor=none;fillColor=none;align=center;verticalAlign=middle;whiteSpace=wrap;rounded=0;" vertex="1" parent="1">
          <mxGeometry x="583" y="573" width="13" height="14" as="geometry" />
        </mxCell>
        <mxCell id="Oz2E0d1gx8pRwYydok05-26" value="&lt;font style=&quot;font-size: 9px&quot;&gt;12&lt;/font&gt;" style="text;html=1;strokeColor=none;fillColor=none;align=center;verticalAlign=middle;whiteSpace=wrap;rounded=0;" vertex="1" parent="1">
          <mxGeometry x="647" y="575" width="13" height="14" as="geometry" />
        </mxCell>
        <mxCell id="Oz2E0d1gx8pRwYydok05-27" value="&lt;font style=&quot;font-size: 9px&quot;&gt;2&lt;/font&gt;" style="text;html=1;strokeColor=none;fillColor=none;align=center;verticalAlign=middle;whiteSpace=wrap;rounded=0;" vertex="1" parent="1">
          <mxGeometry x="730" y="573" width="13" height="14" as="geometry" />
        </mxCell>
        <mxCell id="Oz2E0d1gx8pRwYydok05-28" value="&lt;font style=&quot;font-size: 9px&quot;&gt;12&lt;/font&gt;" style="text;html=1;strokeColor=none;fillColor=none;align=center;verticalAlign=middle;whiteSpace=wrap;rounded=0;" vertex="1" parent="1">
          <mxGeometry x="615" y="531" width="13" height="14" as="geometry" />
        </mxCell>
        <mxCell id="Oz2E0d1gx8pRwYydok05-29" value="&lt;font style=&quot;font-size: 9px&quot;&gt;2&lt;/font&gt;" style="text;html=1;strokeColor=none;fillColor=none;align=center;verticalAlign=middle;whiteSpace=wrap;rounded=0;" vertex="1" parent="1">
          <mxGeometry x="311" y="531" width="13" height="14" as="geometry" />
        </mxCell>
        <mxCell id="Oz2E0d1gx8pRwYydok05-30" value="&lt;font size=&quot;1&quot;&gt;10&lt;/font&gt;" style="text;html=1;strokeColor=none;fillColor=none;align=center;verticalAlign=middle;whiteSpace=wrap;rounded=0;" vertex="1" parent="1">
          <mxGeometry x="-696" y="531" width="13" height="14" as="geometry" />
        </mxCell>
      </root>
    </mxGraphModel>
  </diagram>
</mxfile>
